<svg width="50" height="50" viewBox="0 0 50 50" fill="none" xmlns="http://www.w3.org/2000/svg">
<path fill-rule="evenodd" clip-rule="evenodd" d="M13.3099 0.286359C12.9053 0.645187 12.8848 1.05754 13.2527 1.43688L13.5187 1.71093L30.7671 1.73622L48.0156 1.76162V20.2123V38.6629L48.3008 38.9633C48.7048 39.3892 49.3095 39.3888 49.714 38.9624L50 38.6611L49.9716 19.5783L49.9433 0.495464L49.6923 0.273077L49.4415 0.0505914L31.5371 0.0252957L13.6329 0L13.3099 0.286359ZM8.60847 4.64455C8.47563 4.72708 8.32009 4.95777 8.26292 5.1573C8.20135 5.37197 8.13239 11.7947 8.09362 20.9025C8.05771 29.3629 7.99756 37.153 7.96011 38.2139L7.89182 40.1428H4.43246C0.593963 40.1428 0.358236 40.1741 0.104884 40.7164C-0.0933915 41.1409 0.00838993 43.8862 0.251938 44.6844C0.350305 45.0067 0.660055 45.6846 0.940174 46.1909C1.77304 47.6959 3.40286 49.0055 5.17258 49.5917C6.45146 50.0154 6.65855 50.02 23.121 49.9885L38.8178 49.9584L39.6746 49.6993C42.338 48.8939 44.2149 47.0707 44.9288 44.5955C45.1488 43.8327 45.1516 43.5765 45.1516 24.3985V4.97388L44.8812 4.73421L44.6109 4.49443H26.7305C10.8257 4.49443 8.82349 4.51104 8.60847 4.64455ZM43.1689 24.984C43.1689 41.2581 43.1474 43.7887 43.0048 44.2739C42.4522 46.155 40.6049 47.764 38.5646 48.1413C35.7204 48.6671 32.9652 47.1752 31.9806 44.576C31.7285 43.9104 31.6807 43.5894 31.6296 42.2218C31.5729 40.7034 31.5595 40.6291 31.3024 40.4149L31.0343 40.1917L20.4543 40.1658L9.87424 40.1399L9.94309 36.308C9.98098 34.2004 10.0437 26.5756 10.0822 19.3642L10.1525 6.25244H26.6607H43.1689V24.984ZM25.7044 8.62184C24.5539 9.43843 14.63 17.121 14.4795 17.3116C14.1936 17.6735 14.2615 18.1153 14.6477 18.4033C14.9536 18.6315 15.077 18.6561 15.9145 18.6561H16.8423V23.6891C16.8423 29.2922 16.8425 29.2942 17.5201 29.4782C18.0757 29.6291 35.0009 29.7395 35.3596 29.5946C35.9652 29.35 35.9513 29.4771 35.985 23.8569L36.0163 18.6561H37.0124C37.9666 18.6561 38.0222 18.6441 38.3306 18.3707C38.6447 18.0922 38.7296 17.7757 38.5819 17.4343C38.5281 17.3103 32.2773 12.4385 27.2204 8.57955C26.7268 8.20294 26.2769 8.21545 25.7044 8.62184ZM30.8771 13.724L34.9442 16.8493L30.7481 16.8749C28.4403 16.8889 24.6307 16.8889 22.2823 16.8749L18.0125 16.8493L22.2366 13.6028C25.8485 10.8269 26.486 10.3739 26.6353 10.4775C26.7314 10.5441 28.6402 12.005 30.8771 13.724ZM34.0262 23.2953V27.9345H32.1536H30.281V25.4495V22.9644L30.0152 22.6904L29.7493 22.4163H26.4807H23.2121L22.9462 22.6904C22.6806 22.9642 22.6804 22.9661 22.6804 25.4006V27.8368H20.7527H18.8251V23.2465V18.6561H26.4256H34.0262V23.2953ZM28.2982 26.03V27.9345H26.9918C26.2732 27.9345 25.4553 27.9066 25.1743 27.8724L24.6632 27.8103V25.9679V24.1255H26.4807H28.2982V26.03ZM13.6161 32.4283C12.9955 32.8611 13.1865 33.6957 13.9514 33.8938C14.2359 33.9676 16.4541 33.9914 21.1019 33.9709L27.84 33.941L28.1242 33.7043C28.5117 33.3814 28.5181 32.8086 28.1379 32.4716L27.8676 32.2318H20.8827C14.0506 32.2318 13.8917 32.2361 13.6161 32.4283ZM13.6161 36.1397C12.9954 36.5725 13.1865 37.4076 13.9514 37.6046C14.2402 37.679 17.8261 37.7021 25.912 37.6815L37.4601 37.6523L37.7259 37.3783C38.0888 37.0041 38.0791 36.5356 37.7013 36.2006L37.4108 35.9432H25.6543C14.0409 35.9432 13.8945 35.9455 13.6161 36.1397ZM29.6202 42.1206C29.6202 42.2415 29.6705 42.8106 29.732 43.3854C29.9164 45.1094 30.5946 46.5224 31.7847 47.6622L32.3976 48.2492H19.7413C5.9648 48.2492 6.51854 48.2702 5.24936 47.6999C4.44833 47.3401 3.67836 46.7402 3.13354 46.0517C2.31026 45.0113 1.97165 44.0098 1.97165 42.6154V41.9009H15.7958H29.62L29.6202 42.1206Z" fill="#009EE3"/>
</svg>
