<svg width="50" height="50" viewBox="0 0 50 50" fill="none" xmlns="http://www.w3.org/2000/svg">
<path fill-rule="evenodd" clip-rule="evenodd" d="M23.5797 0.221652C22.6353 0.991177 0.11208 21.5334 0.0616744 21.6711C-0.0683447 22.0267 0.00765442 22.3595 0.285471 22.651L0.571006 22.9506H2.92297H5.27494L5.27807 36.0442C5.28129 49.8959 5.26215 49.3195 5.7284 49.58C5.87942 49.6645 10.4486 49.7403 22.1395 49.8526C43.6025 50.0588 41.9303 50.0663 42.2678 49.7617L42.5419 49.5145L42.5907 43.9242L42.6396 38.3339L43.128 38.6547C45.2477 40.0464 46.1595 40.5796 46.4202 40.5796C46.6086 40.5796 46.8074 40.4759 46.9941 40.28L47.2796 39.9804V34.1185V28.2564L47.8346 27.6278C50.6831 24.4011 50.7259 19.7619 47.9359 16.6327C46.9188 15.4918 45.5032 14.6348 44.0856 14.3015C43.2336 14.1011 41.5799 14.0875 40.8227 14.2744L40.2757 14.4095L32.8614 7.65196C28.7834 3.93522 25.2121 0.69128 24.9251 0.443142C24.3278 -0.0734284 24.0066 -0.126315 23.5797 0.221652ZM31.3323 8.70396L38.4777 15.2123L38.2142 15.4173C36.4675 16.7761 35.5161 18.2174 35.0512 20.2089L34.8418 21.1057H19.062C7.3951 21.1057 3.31079 21.0757 3.39177 20.9907C3.77557 20.588 24.0898 2.16135 24.1331 2.17662C24.1627 2.18708 27.4023 5.12435 31.3323 8.70396ZM44.2936 16.2682C47.049 17.3279 48.6711 20.2564 48.1154 23.1681C47.565 26.0527 45.1409 28.1742 42.3954 28.1742C39.814 28.1742 37.4158 26.207 36.7692 23.5591C36.5787 22.7787 36.5588 21.4507 36.7263 20.6889C37.1943 18.5595 38.858 16.7395 40.8918 16.132C41.6382 15.9091 43.5597 15.9861 44.2936 16.2682ZM41.8957 17.7117C41.7675 17.8181 41.4471 18.3663 41.1838 18.9299L40.7047 19.9547L39.6359 20.1268C38.3998 20.326 38.1592 20.4202 38.0103 20.7631C37.7755 21.3038 37.8639 21.5026 38.7725 22.4776L39.6432 23.4119L39.4448 24.5657C39.2095 25.9338 39.2758 26.2606 39.8386 26.5073C40.1724 26.6536 40.1996 26.6457 41.2944 26.0848L42.41 25.5132L43.5077 26.0862C44.605 26.6592 44.6054 26.6593 44.9654 26.5014C45.5441 26.2478 45.5954 26.0012 45.3643 24.5842L45.1663 23.3702L46.0276 22.4708C46.8108 21.6527 46.8889 21.5358 46.8889 21.1798C46.8889 20.6941 46.5591 20.3371 46.0332 20.2536C45.8322 20.2216 45.3094 20.142 44.8714 20.0766L44.075 19.9576L43.6294 18.9505C43.3844 18.3965 43.0861 17.8478 42.9666 17.7309C42.694 17.4644 42.2043 17.4556 41.8957 17.7117ZM42.6735 21.0461C42.9099 21.5137 43.132 21.6596 43.7894 21.7796L44.1578 21.8469L43.7523 22.3084C43.3499 22.7664 43.3473 22.7745 43.407 23.3741L43.4672 23.9782L43.0817 23.7719C42.5962 23.5121 42.1975 23.5105 41.7193 23.7665L41.344 23.9674L41.3906 23.3309C41.4356 22.7166 41.4249 22.6793 41.0827 22.2641L40.7282 21.8338L41.0977 21.7707C41.7179 21.6649 41.8988 21.5388 42.1221 21.0565C42.24 20.8017 42.3609 20.5933 42.3906 20.5933C42.4203 20.5933 42.5476 20.797 42.6735 21.0461ZM34.9989 23.7228C35.2989 25.1731 36.0625 26.6291 37.065 27.6619L37.6088 28.2221V34.1013V39.9804L37.8943 40.28C38.3106 40.7168 38.5873 40.6688 39.709 39.9646C40.2463 39.6273 40.7188 39.351 40.7591 39.3505C40.7995 39.3501 40.8324 41.3302 40.8324 43.7509C40.8324 46.1716 40.7995 48.17 40.7591 48.1918C40.7188 48.2138 38.5002 48.2111 35.8288 48.1859L30.9717 48.1402L30.9445 41.5948L30.9173 35.0494L30.6465 34.7653L30.3757 34.4812H24.2309C18.1501 34.4812 18.0832 34.4835 17.8126 34.6954C17.6621 34.8133 17.5094 35.0208 17.4732 35.1566C17.4371 35.2925 17.4031 38.2287 17.3977 41.6814L17.3879 47.9592H12.6639C10.0655 47.9592 7.73573 47.9299 7.48654 47.894L7.03328 47.8288V35.3897V22.9506H20.9362H34.8392L34.9989 23.7228ZM41.5743 29.9448C42.5528 30.0822 43.8229 29.9391 44.8579 29.5748L45.5213 29.3414V33.6853C45.5213 36.0746 45.4884 38.0092 45.448 37.9846C45.4077 37.9599 44.7847 37.5605 44.0636 37.0971C43.125 36.4938 42.6616 36.2544 42.4329 36.2544C42.2042 36.2544 41.7573 36.4851 40.8623 37.0652C40.1743 37.5111 39.5564 37.9105 39.4892 37.9527C39.3923 38.0136 39.3671 37.1331 39.3671 33.6853V29.3414L40.061 29.5856C40.4425 29.7198 41.1236 29.8815 41.5743 29.9448ZM29.159 42.2013V48.0763L24.2356 48.0655C21.5276 48.0595 19.2748 48.0304 19.2292 48.0009C19.1317 47.9377 19.1151 36.4443 19.2123 36.3423C19.2485 36.3042 21.5014 36.2849 24.2187 36.2996L29.159 36.3261V42.2013Z" fill="#009EE3"/>
</svg>
