<svg width="42" height="50" viewBox="0 0 42 50" fill="none" xmlns="http://www.w3.org/2000/svg">
<path fill-rule="evenodd" clip-rule="evenodd" d="M23.8186 0.111459C23.7108 0.170174 23.3061 0.527247 22.9192 0.904836C22.2393 1.56857 22.2064 1.58762 21.9326 1.47459C21.5376 1.31154 21.1868 1.46248 20.5803 2.05656L20.0863 2.54034L19.6982 2.14067C19.4846 1.92096 19.1837 1.67516 19.0296 1.59446C18.6886 1.41627 17.9897 1.40357 17.6771 1.56994C17.5509 1.63706 16.3756 2.73983 15.0651 4.02041L12.6824 6.34886H12.0155C9.72497 6.34886 8.01259 7.52325 7.33149 9.56116C7.21623 9.90602 7.16958 10.6382 7.1338 12.6659L7.08695 15.3194L4.35317 17.9736L1.61939 20.6279L0.844498 23.038C0.418337 24.3635 0.0454948 25.5541 0.0160908 25.6838C-0.0831964 26.1198 0.290626 26.5631 0.762069 26.5685C1.07963 26.5722 5.797 25.1538 6.02253 24.9868C6.10702 24.9243 6.3843 24.6758 6.63864 24.4347L7.10097 23.9963L7.13204 35.1756C7.15987 45.2025 7.17957 46.4013 7.32267 46.806C7.90899 48.4638 9.21844 49.6226 10.844 49.9221C11.204 49.9884 15.9609 50.0127 24.9052 49.9938C37.2509 49.9677 38.4627 49.951 38.8861 49.8016C39.5915 49.5527 40.202 49.1622 40.7446 48.6128C41.2713 48.0795 41.5244 47.6532 41.816 46.8083C41.9927 46.2963 42 45.6999 42 31.6239V16.9724L41.1856 16.1301C38.2442 13.0879 33.3021 8.01114 32.5436 7.25254L31.6399 6.34886H28.3822H25.1243L25.3781 6.04826C25.6406 5.7372 25.6995 5.38745 25.5394 5.08919C25.4638 4.94851 25.5983 4.7668 26.2745 4.09642C27.4577 2.92311 27.4633 2.95574 25.7993 1.29718C24.4546 -0.0431913 24.2868 -0.143621 23.8186 0.111459ZM24.8004 3.31858C24.589 3.53448 24.3697 3.70662 24.3132 3.70115C24.2568 3.69568 24.0131 3.47186 23.7717 3.20369L23.3328 2.71609L23.7575 2.32131L24.1821 1.92653L24.6835 2.42633L25.185 2.92604L24.8004 3.31858ZM17.5752 5.03497L16.2326 6.34886L15.615 6.34584L14.9974 6.34291L16.6489 4.72108L18.3003 3.09935L18.6092 3.41021L18.9179 3.72117L17.5752 5.03497ZM22.6916 4.44402L23.7173 5.46991L23.3269 5.84886C23.1122 6.05725 19.0418 10.0358 14.2818 14.69C9.5217 19.3443 5.59549 23.1523 5.55687 23.1523C5.51825 23.1523 5.02505 22.6907 4.46089 22.1264L3.43528 21.1006L3.77656 20.7699C3.96435 20.5881 8.03562 16.6095 12.824 11.9287C17.6123 7.24785 21.5605 3.41803 21.5979 3.41803C21.6352 3.41803 22.1274 3.87973 22.6916 4.44402ZM11.0708 8.42732C11.1598 8.82923 11.4644 9.08431 11.8554 9.08431C12.1285 9.08431 12.3039 8.98183 12.7751 8.54699C13.3428 8.02306 13.3716 8.00967 13.9307 8.00967H14.5041L13.3786 9.14009C12.7596 9.76173 11.4666 11.0233 10.5053 11.9434L8.75749 13.6165L8.79022 11.8145C8.8258 9.85981 8.87608 9.65602 9.50788 8.90768C9.76389 8.60434 10.9617 7.9364 10.9936 8.07913C11.003 8.12153 11.0378 8.27823 11.0708 8.42732ZM30.553 12.1373C30.5807 16.1549 30.5872 16.2753 30.7934 16.6556C31.0624 17.1516 31.5374 17.6011 32.1007 17.8927C32.5384 18.1193 32.5718 18.1213 36.488 18.1515L40.4344 18.1819L40.4086 32.1707L40.3828 46.1594L40.1575 46.6479C39.8892 47.2291 39.3553 47.8053 38.8146 48.0972L38.4225 48.3087L24.7007 48.3345L10.9789 48.3603L10.3718 48.0624C9.76526 47.7648 9.37262 47.3718 9.00752 46.6967C8.82953 46.3676 8.82168 45.9047 8.79914 34.3384L8.77572 22.3219L16.0921 15.1658L23.4084 8.00967H26.9665H30.5244L30.553 12.1373ZM36.7371 13.8958L39.2791 16.5091L36.1065 16.5087C33.137 16.5084 32.9138 16.4962 32.6212 16.3184C32.4113 16.1908 32.2747 16.0067 32.2053 15.757C32.1422 15.5309 32.1028 14.1629 32.1045 12.2594L32.1072 9.13316L33.1512 10.2078C33.7252 10.7989 35.3389 12.4584 36.7371 13.8958ZM24.0033 18.0959C23.0832 18.8089 14.2517 26.5065 14.1619 26.6737C14.0089 26.9587 14.1344 27.4133 14.4301 27.6451C14.633 27.8042 14.8276 27.8417 15.4517 27.8417H16.2226V32.72C16.2226 35.5839 16.2613 37.6997 16.3162 37.8439C16.5293 38.4028 16.205 38.3788 24.5056 38.4504L32.1497 38.5164L32.4192 38.3008L32.6888 38.0854V32.9635V27.8417H33.5633C34.3613 27.8417 34.4644 27.8195 34.7395 27.5887C35.0648 27.3159 35.1259 26.975 34.9151 26.6095C34.8497 26.496 32.5781 24.4848 29.8673 22.14C24.4712 17.4725 24.6493 17.5954 24.0033 18.0959ZM28.6545 23.25L31.981 26.132L28.3236 26.1576C26.312 26.1717 22.9781 26.1717 20.9149 26.1576L17.1636 26.132L20.8693 22.9332L24.5749 19.7344L24.9514 20.0512C25.1585 20.2255 26.8249 21.6649 28.6545 23.25ZM3.38019 23.2962C3.72598 23.644 3.98935 23.9466 3.96543 23.9686C3.87888 24.0481 2.18541 24.5314 2.14258 24.4888C2.08436 24.4308 2.61687 22.6639 2.69253 22.6639C2.72488 22.6639 3.0344 22.9484 3.38019 23.2962ZM31.1205 32.3845V36.9273H29.508H27.8955L27.8663 34.4274L27.8371 31.9276L27.5571 31.6877L27.2771 31.4478L24.5344 31.4765L21.7918 31.5052L21.6045 31.7359C21.4314 31.949 21.4173 32.1501 21.4173 34.398V36.8296H19.653H17.8888V32.3356V27.8417H24.5047H31.1205V32.3845ZM26.2199 34.9734V36.8296H24.6027H22.9855V34.9734V33.1172H24.6027H26.2199V34.9734ZM15.1444 41.6453C14.6397 41.8997 14.5484 42.5747 14.9675 42.9527C15.1551 43.122 15.6122 43.1322 24.0984 43.1582C29.0118 43.1733 33.1298 43.1617 33.2496 43.1326C33.5813 43.0519 33.8653 42.6912 33.8618 42.3553C33.858 41.9895 33.6899 41.7545 33.3359 41.6204C32.9136 41.4604 15.4639 41.4842 15.1444 41.6453Z" fill="#009EE3"/>
</svg>
