<svg width="50" height="50" viewBox="0 0 50 50" fill="none" xmlns="http://www.w3.org/2000/svg">
<path fill-rule="evenodd" clip-rule="evenodd" d="M20.6228 0.267851C19.7587 0.940988 0.752511 16.3785 0.405863 16.6887C-0.0882769 17.1309 -0.1339 17.6146 0.283786 17.983C0.546064 18.2142 0.599915 18.2206 2.57533 18.2516L4.59835 18.2836V28.3244C4.59835 35.5642 4.63137 38.454 4.71657 38.6834C4.92604 39.247 5.11926 39.2737 8.99582 39.2738C14.5699 39.274 19.8201 39.3879 19.8626 39.5095C20.7496 42.047 22.0717 44.1463 23.8028 45.7658C29.3246 50.9312 37.9598 51.429 44.1275 46.9373C47.2935 44.6317 49.3201 41.2924 49.914 37.4023C50.0887 36.2583 49.9852 33.8391 49.712 32.6791C48.4436 27.2946 44.3302 23.185 38.756 21.7329C38.2157 21.5921 37.7151 21.4599 37.6434 21.439C37.5464 21.4108 37.5132 21.0025 37.5132 19.8348V18.2686H39.5477C41.8494 18.2686 42.1796 18.2015 42.4064 17.6878C42.5217 17.4267 42.5205 17.3314 42.3983 17.1006C42.2799 16.8766 36.3345 11.9902 22.7487 0.951051C21.43 -0.120399 21.2113 -0.190644 20.6228 0.267851ZM30.1642 9.16948C35.005 13.1117 39.0196 16.3979 39.0856 16.4724C39.1875 16.5877 36.5328 16.6078 21.2025 16.6078C5.57329 16.6078 3.21967 16.5893 3.35216 16.4678C3.95942 15.9104 21.2282 1.9589 21.2873 1.97785C21.3288 1.99114 25.3234 5.22738 30.1642 9.16948ZM35.7425 19.7202V21.1718L34.102 21.2296C32.4139 21.289 31.5176 21.4274 30.0677 21.8529C27.2288 22.6859 24.5836 24.361 22.807 26.4508L22.2878 27.0614H19.1787C17.3713 27.0614 15.9557 27.1021 15.7974 27.1586C15.2365 27.3585 15.2228 27.4944 15.2228 32.8378V37.7413L13.426 37.6773C12.4377 37.6422 10.4457 37.6133 8.99915 37.6131L6.36908 37.6128V27.9407V18.2686H21.0558H35.7425V19.7202ZM37.5132 23.1022C41.478 23.9338 44.8948 26.3717 46.7031 29.6587C47.808 31.6674 48.2492 33.368 48.2492 35.6173C48.2492 39.14 46.8145 42.2941 44.0834 44.7748C40.4582 48.0679 35.2673 49.1969 30.4945 47.7305C28.3639 47.0759 26.6437 46.085 25.0622 44.6017C20.6189 40.4341 19.7896 33.9783 23.0498 28.9372C24.2804 27.0344 26.4446 25.1771 28.6417 24.1385C29.5477 23.7101 31.2635 23.1843 32.3153 23.0126C33.4801 22.8223 36.4209 22.8731 37.5132 23.1022ZM37.7877 27.6548C37.5124 27.8579 37.4229 28.2903 37.5779 28.6691C37.6784 28.9147 38.1822 29.1122 38.7319 29.1217C39.0069 29.1264 39.462 29.1593 39.7432 29.195L40.2547 29.2596L37.9998 30.9025C36.5642 31.9485 35.6972 32.519 35.6134 32.4728C35.5413 32.4329 34.6384 31.777 33.6072 31.0154C32.576 30.2536 31.6299 29.58 31.5048 29.5183C30.9465 29.2431 30.8446 29.3096 28.2924 31.614C25.9598 33.72 25.8472 33.8384 25.8472 34.1858C25.8472 34.6639 26.1861 34.975 26.7068 34.975C27.0546 34.975 27.2428 34.8327 29.0959 33.1684C30.2022 32.1747 31.1357 31.3614 31.1704 31.361C31.205 31.3605 32.1587 32.0416 33.2897 32.8745C35.6082 34.5819 35.6921 34.6141 36.4614 34.0914C36.9687 33.7467 41.1166 30.7267 41.4048 30.4921C41.5929 30.339 41.5965 30.3682 41.5229 31.4764L41.4472 32.6185L41.7349 32.8686C42.0952 33.1818 42.5173 33.1898 42.8884 32.8906C43.1584 32.6727 43.1773 32.5965 43.3067 31.2053C43.5695 28.3805 43.546 28.1002 43.0252 27.8387C42.8638 27.7576 39.2216 27.4548 38.3866 27.4529C38.2082 27.4525 37.9386 27.5434 37.7877 27.6548ZM20.8537 29.297C20.3996 30.1406 19.7492 32.0486 19.5341 33.1675C19.3981 33.8754 19.3464 34.6356 19.3465 35.9275L19.3467 37.7105H18.1701H16.9935V33.2164V28.7223H19.0782H21.163L20.8537 29.297ZM38.1302 35.0651L37.8257 35.3507V38.7288V42.1069H37.357H36.8883V39.5324C36.8883 36.8775 36.8304 36.4251 36.4676 36.243C36.2155 36.1165 33.0766 36.1193 32.8237 36.2462C32.4808 36.4183 32.4105 36.9865 32.41 39.5912L32.4094 42.1069H31.9406H31.4719V40.2442C31.4719 39.0967 31.4287 38.3058 31.3594 38.1843C31.1551 37.8264 30.6349 37.7105 29.2324 37.7105C27.83 37.7105 27.3097 37.8264 27.1055 38.1843C27.0362 38.3058 26.993 39.0967 26.993 40.2442V42.1069H26.4903C26.0996 42.1069 25.9373 42.1572 25.7612 42.333C25.4509 42.6428 25.4577 43.1774 25.7757 43.4576L26.0169 43.67H34.6863H43.3557L43.6114 43.4302C43.7726 43.2791 43.8671 43.0788 43.8671 42.8885C43.8671 42.4059 43.4703 42.1069 42.8301 42.1069H42.3047L42.3013 38.7119C42.2989 36.1972 42.2652 35.2767 42.1711 35.1618C41.9024 34.8336 41.5972 34.7796 40.012 34.7796H38.4347L38.1302 35.0651ZM40.5339 39.2736V42.1069H40.0652H39.5965V39.2736V36.4404H40.0652H40.5339V39.2736ZM35.0655 39.9087V42.058H34.6488H34.2322L34.2039 40.0089C34.1884 38.8819 34.1998 37.901 34.2291 37.8292C34.2639 37.744 34.4188 37.7091 34.674 37.729L35.0655 37.7593V39.9087ZM29.7012 40.7391V42.1069H29.2324H28.7637V40.7391V39.3713H29.2324H29.7012V40.7391Z" fill="#009EE3"/>
</svg>
