<svg width="50" height="50" viewBox="0 0 50 50" fill="none" xmlns="http://www.w3.org/2000/svg">
<path fill-rule="evenodd" clip-rule="evenodd" d="M21.878 0.0876694C21.3938 0.356527 21.3989 0.246425 21.3989 10.3334C21.3989 20.66 21.3835 20.3816 21.9665 20.592C22.1144 20.6454 23.1815 20.6891 24.3378 20.6891H26.4401V23.1695C26.4401 25.986 26.4523 26.0323 27.2128 26.1244C27.6137 26.173 27.7172 26.1099 31.6357 23.4318L35.648 20.6895L42.4691 20.6893C49.6864 20.6891 49.7584 20.6848 49.9361 20.2451C49.9712 20.1581 50 15.6771 50 10.2874C50 0.784532 49.994 0.480796 49.8033 0.257171L49.6067 0.026512L35.8371 0.00443283C26.1416 -0.0111007 22.0116 0.0136162 21.878 0.0876694ZM48.3539 10.3334V19.0283H41.7257H35.0975L31.6378 21.373C29.7349 22.6626 28.1574 23.7177 28.1321 23.7177C28.1069 23.7177 28.0862 22.7573 28.0862 21.5835C28.0862 19.5387 28.0772 19.4415 27.8699 19.2632C27.6735 19.0942 27.4462 19.0744 25.4007 19.0474L23.1479 19.0177V10.3281V1.63849H35.7509H48.3539V10.3334ZM34.4387 3.36809C29.3544 7.5347 28.0585 8.63153 27.9754 8.83894C27.7428 9.42003 28.1415 9.85771 28.9623 9.92238L29.5266 9.96683L29.5281 13.3496C29.5298 17.0794 29.539 17.1393 30.1465 17.3376C30.5271 17.4617 41.4868 17.5246 41.8163 17.4045C42.2506 17.2462 42.2839 16.9588 42.2839 13.3668V9.9426H42.7402C42.9911 9.9426 43.313 9.9005 43.4554 9.84911C43.7898 9.72836 44.0579 9.24095 43.9709 8.91182C43.9258 8.74085 42.8031 7.75295 40.4451 5.80911C36.0005 2.14543 36.3649 2.42005 35.9482 2.42005C35.6502 2.42005 35.416 2.56708 34.4387 3.36809ZM38.572 6.42557L40.7625 8.23293L38.3924 8.25912C37.0888 8.27357 34.9254 8.27357 33.5846 8.25912L31.147 8.23293L33.5444 6.26124C35.8881 4.33371 35.9468 4.29317 36.1617 4.45388C36.2827 4.54424 37.3673 5.43152 38.572 6.42557ZM40.5349 12.9261V15.9096L39.6347 15.8814L38.7345 15.8532L38.683 14.159C38.6151 11.9231 38.835 12.0919 35.9921 12.0919C33.1544 12.0919 33.3332 11.9509 33.3332 14.188V15.8043H32.3044H31.2756V12.8735V9.9426H35.9052H40.5349V12.9261ZM36.9341 14.7785V15.8043H36.0081H35.0822V14.7785V13.7527H36.0081H36.9341V14.7785ZM12.3517 17.5673C9.10924 17.9852 6.53277 20.0907 5.54295 23.1315C5.34244 23.7473 5.30396 24.0825 5.30159 25.2319C5.29923 26.3978 5.33431 26.7073 5.53956 27.329C6.51909 30.2964 8.84977 32.2949 11.9853 32.8564C15.6893 33.5196 19.5136 31.4955 20.9538 28.1098C21.3894 27.0857 21.5263 26.242 21.4761 24.89C21.4376 23.853 21.3838 23.5403 21.1192 22.816C19.9971 19.7446 17.2446 17.748 13.8372 17.5337C13.3845 17.5053 12.716 17.5205 12.3517 17.5673ZM15.3804 19.4579C17.3868 20.067 19.0542 21.7486 19.604 23.7177C19.8337 24.5404 19.8372 25.9185 19.6117 26.7392C18.7333 29.9349 15.4102 31.8787 11.9986 31.1923C9.72138 30.7342 7.73937 28.8979 7.1514 26.7013C6.93144 25.8796 6.95253 24.5926 7.20099 23.6699C7.48505 22.6152 8.02178 21.7471 8.9008 20.9205C9.74463 20.1269 10.916 19.5109 12.0367 19.2714C12.9873 19.0681 14.3461 19.1441 15.3804 19.4579ZM11.368 34.4089C9.97848 34.6302 9.25965 34.8397 7.66427 35.4887C6.46765 35.9754 4.82216 37.122 3.65004 38.2857C2.29797 39.6282 1.30033 41.206 0.676555 42.9885C0.150625 44.4918 0.00052088 45.5296 6.47286e-06 47.6666C-0.000405053 49.3143 0.0183194 49.5096 0.196304 49.7182L0.392911 49.9489L13.3065 49.9744L26.2202 50L26.5102 49.7626L26.8002 49.5251L26.7932 47.6365C26.7857 45.597 26.6927 44.8444 26.2811 43.4935C25.0657 39.5055 21.8285 36.2716 17.7467 34.9685C17.2374 34.8058 16.4735 34.6018 16.0491 34.5151C14.9946 34.2995 12.4217 34.2411 11.368 34.4089ZM15.2832 36.0739C16.5146 36.2635 17.6285 36.6229 18.8505 37.2249C22.7494 39.1456 25.1005 42.9297 25.1023 47.2867L25.1027 48.3369H13.3742H1.6457L1.6458 47.7752C1.64611 45.8034 2.07554 43.8126 2.82431 42.3115C5.07083 37.8082 10.1225 35.279 15.2832 36.0739Z" fill="#009EE3"/>
</svg>
