<svg width="44" height="50" viewBox="0 0 44 50" fill="none" xmlns="http://www.w3.org/2000/svg">
<path fill-rule="evenodd" clip-rule="evenodd" d="M19.7359 0.0608332C12.0997 0.826028 5.27007 5.40468 2.03026 11.9309C-0.518103 17.064 -0.669136 22.6055 1.58666 28.2043C3.89917 33.944 8.89856 40.0532 15.9851 45.7987C18.4752 47.8176 21.6193 50 22.0376 50C22.1618 50 22.5723 49.794 22.95 49.5422C30.5385 44.4839 37.279 37.7365 40.6846 31.7893C42.9929 27.7584 44.0064 24.288 44 20.4369C43.9915 15.3242 42.0274 10.6035 38.3121 6.76598C34.8966 3.23811 30.3863 0.947712 25.3872 0.202261C24.1257 0.0141142 20.9857 -0.0644675 19.7359 0.0608332ZM24.7532 1.77477C31.7064 2.68658 37.5808 6.75992 40.4873 12.6847C42.2331 16.2435 42.7559 19.7959 42.0873 23.5577C41.1467 28.8512 37.695 34.4539 31.843 40.1861C29.0838 42.8887 26.4707 45.0674 23.2782 47.3272L22.0193 48.2183L20.6199 47.2276C13.0661 41.8807 7.05606 35.5061 4.09161 29.6968C3.07959 27.7137 2.37753 25.7716 1.97264 23.8352C1.67738 22.4231 1.60426 19.6162 1.82421 18.1373C2.75422 11.8845 6.7843 6.55722 12.7344 3.71527C14.8309 2.71394 16.5744 2.18449 18.9858 1.8169C20.5008 1.58585 23.1648 1.5664 24.7532 1.77477ZM21.3863 5.20803C19.2618 5.27704 16.663 5.92426 14.7704 6.85561C9.9816 9.21218 6.68688 13.6629 5.8762 18.8703C5.71957 19.8768 5.71967 22.3606 5.8764 23.3663C6.69738 28.6334 9.985 33.0449 14.8678 35.4314C18.5205 37.2167 23.3821 37.5199 27.2376 36.2028C32.7819 34.3086 36.7586 29.888 37.9936 24.2459C38.2988 22.8513 38.3717 20.3076 38.1463 18.9192C37.5667 15.3498 36.0957 12.4407 33.6365 10.0001C30.3728 6.7611 26.0178 5.05752 21.3863 5.20803ZM24.8371 7.1023C29.9726 8.11331 34.1745 11.6956 35.848 16.4894C37.6267 21.5846 36.3778 27.072 32.5392 31.0276C31.3231 32.2807 29.9475 33.2385 28.1878 34.0576C23.3373 36.3152 17.4919 35.7088 13.1792 32.5009C8.49618 29.0174 6.40442 23.2032 7.83513 17.6471C8.49588 15.0814 9.76715 12.8957 11.6945 11.0124C14.0647 8.69642 17.1038 7.2668 20.4361 6.90028C21.5717 6.77537 23.6644 6.87144 24.8371 7.1023ZM21.7347 9.97278C21.4535 10.0908 12.3916 17.6769 11.9092 18.1982C11.6898 18.4354 11.6212 18.8403 11.7463 19.1591C11.8573 19.4417 12.3424 19.6033 13.0795 19.6033H13.7846V24.3485C13.7846 29.3802 13.7977 29.5292 14.256 29.7219C14.4633 29.809 29.025 29.9946 29.3656 29.9145C29.4908 29.885 29.682 29.7741 29.7906 29.668C29.9821 29.4809 29.9882 29.3234 29.9882 24.5391V19.6033H30.8749C31.6119 19.6033 31.8048 19.5701 32.0174 19.4067C32.3512 19.1501 32.4561 18.6922 32.2512 18.3866C32.0286 18.0546 22.637 10.0962 22.3078 9.96066C22.0953 9.87319 21.9655 9.87583 21.7347 9.97278ZM25.8823 15.0585L29.2225 17.8929L25.6044 17.9185C23.6146 17.9327 20.3702 17.9327 18.3948 17.9185L14.8033 17.8929L18.4115 14.8436L22.0196 11.7942L22.2809 12.0092C22.4245 12.1273 24.0452 13.4996 25.8823 15.0585ZM28.3878 23.9527V28.3021H26.8375H25.2872L25.2816 26.1274C25.2754 23.7733 25.2066 23.3588 24.7871 23.1479C24.5979 23.0527 23.8985 23.0284 21.914 23.0476C19.3352 23.0727 19.2872 23.0768 19.0634 23.2955C18.841 23.5128 18.835 23.5726 18.8056 25.8611L18.7756 28.2043H17.1303H15.485V23.9038V19.6033H21.9364H28.3878V23.9527ZM23.5868 26.4393C23.5868 27.4038 23.5531 28.2072 23.5118 28.2247C23.4705 28.2423 22.7729 28.2416 21.9614 28.2233L20.4861 28.1899V26.4378V24.6857H22.0364H23.5868V26.4393Z" fill="#009EE3"/>
</svg>
