<svg width="54" height="50" viewBox="0 0 54 50" fill="none" xmlns="http://www.w3.org/2000/svg">
<path fill-rule="evenodd" clip-rule="evenodd" d="M12.044 0.138057C10.1029 0.678036 8.48286 2.36513 8.01997 4.32877C7.9052 4.81556 7.69759 23.1633 7.692 33.3079L7.68989 37.1262H4.12317C0.685988 37.1262 0.548007 37.1343 0.326795 37.3459C0.200523 37.4667 0.0687662 37.6818 0.0339545 37.8239C-0.000751757 37.9662 -0.0104568 39.3662 0.012329 40.9352C0.0522042 43.6771 0.0647575 43.8218 0.334917 44.6568C1.25395 47.4977 3.6107 49.5275 6.4296 49.9055C7.05442 49.9893 11.9542 50.0151 22.8277 49.9918C38.2415 49.9587 38.3386 49.9572 38.9764 49.7321C40.2126 49.2959 41.1391 48.7103 42.0372 47.7975C43.0085 46.8104 43.5675 45.8729 43.9751 44.5476L44.2421 43.6796L44.2714 29.2492L44.3008 14.8188L48.8959 14.7883L53.491 14.758L53.7455 14.4541L54 14.1501L53.9984 9.68794C53.9968 4.9709 53.9608 4.53631 53.4786 3.42148C52.8862 2.05208 51.6049 0.843983 50.1339 0.268042L49.5167 0.0263778L31.0559 0.00547185C15.418 -0.0121844 12.5109 0.00807164 12.044 0.138057ZM44.0839 1.79872C44.0839 1.85017 43.9368 2.08166 43.7568 2.31325C43.3861 2.79051 43.0398 3.45776 42.7514 4.25089C42.5625 4.77029 42.5521 5.59103 42.5016 24.2361C42.4504 43.1106 42.4429 43.6955 42.2454 44.2213C41.6904 45.6989 40.6849 46.9056 39.4723 47.5493C38.5677 48.0296 37.9151 48.1919 36.8871 48.192C34.4043 48.1922 32.2674 46.5172 31.4762 43.9505C31.3279 43.4694 31.2825 42.8037 31.2407 40.4934C31.1897 37.6734 31.1854 37.6284 30.9426 37.3792L30.6963 37.1262H20.0233H9.3502L9.41602 34.0662C9.45221 32.3831 9.51012 25.3274 9.54462 18.3867C9.57922 11.4461 9.64736 5.46072 9.69621 5.08604C9.91721 3.38974 11.1867 2.07093 12.8378 1.82234C13.6395 1.70156 44.0839 1.6787 44.0839 1.79872ZM49.9265 2.17319C50.7379 2.55458 51.406 3.22791 51.8111 4.07259L52.1539 4.7874L52.1839 8.879L52.214 12.9707H48.2508H44.2875L44.3176 8.93576L44.3477 4.90081L44.6728 4.1964C45.639 2.10289 47.9137 1.2269 49.9265 2.17319ZM21.6586 7.81258C19.4161 8.94735 18.1059 9.67072 17.9928 9.83634C17.8371 10.0648 17.8171 10.5093 17.8185 13.726C17.8201 17.5741 17.868 18.0662 18.3511 19.1992C18.7267 20.08 19.4783 21.1637 20.0648 21.67C20.7144 22.2308 24.9386 25.1941 25.2803 25.3287C25.4172 25.3826 25.6262 25.3798 25.774 25.3222C26.2629 25.1313 30.7421 21.9114 31.2732 21.369C31.9013 20.7277 32.5788 19.5904 32.9206 18.6034C33.1553 17.9258 33.1657 17.7533 33.1976 14.0174C33.2272 10.5452 33.2122 10.1066 33.0555 9.86093C32.8188 9.49004 25.9704 6.03623 25.4837 6.04241C25.2694 6.04511 23.8897 6.68356 21.6586 7.81258ZM28.5107 9.39168L31.4251 10.8497V14.168C31.4251 17.2066 31.4073 17.5395 31.2137 18.1174C30.9479 18.9105 30.5105 19.6136 29.9273 20.1855C29.3746 20.7273 25.7386 23.2971 25.5177 23.3021C25.2682 23.3077 21.3809 20.5071 20.91 19.9826C20.3664 19.377 19.9881 18.7016 19.7775 17.9608C19.6412 17.4814 19.6103 16.7684 19.6103 14.108V10.8435L22.5376 9.37132C24.1476 8.56162 25.4945 7.90693 25.5306 7.91646C25.5666 7.92599 26.9076 8.58989 28.5107 9.39168ZM27.8385 13.0916C27.6934 13.1493 26.9239 13.8622 26.1285 14.6757L24.6822 16.1547L24.0014 15.4834C23.3514 14.8424 23.2027 14.7636 22.7222 14.8057C22.4106 14.8329 22.0365 15.3156 22.0365 15.6906C22.0365 15.9544 22.226 16.2159 23.0446 17.0821C24.1723 18.2755 24.5074 18.4838 24.9778 18.2837C25.1449 18.2127 26.118 17.2872 27.1403 16.2273C28.8287 14.4765 28.9989 14.2657 28.9989 13.925C28.9989 13.3141 28.3856 12.8735 27.8385 13.0916ZM14.8259 28.0763C14.4686 28.4164 14.4591 28.8854 14.8013 29.294L15.0559 29.5979H25.8693H36.6827L36.9548 29.3354C37.3178 28.9853 37.3235 28.4414 36.9681 28.0766L36.7092 27.8107H25.9071H15.105L14.8259 28.0763ZM15.1797 32.0033C14.4114 32.2918 14.33 33.2535 15.0409 33.6423C15.2116 33.7357 18.0181 33.7683 25.8852 33.7683C37.1651 33.7683 36.9744 33.7766 37.1616 33.276C37.3642 32.7337 37.1647 32.2179 36.6861 32.0465C36.3398 31.9226 15.5063 31.8807 15.1797 32.0033ZM29.5263 41.06C29.5263 42.2108 29.5778 43.4417 29.6406 43.7951C29.8813 45.149 30.7208 46.7955 31.6227 47.6824C31.8622 47.9179 32.0581 48.1511 32.0581 48.2006C32.0581 48.2501 26.3023 48.2749 19.2674 48.2556C5.25708 48.2172 6.17073 48.2603 4.80284 47.5722C4.01008 47.1733 2.88725 46.0356 2.44503 45.1831C1.87686 44.0879 1.78245 43.5074 1.78245 41.1114V38.9677H15.6544H29.5263V41.06Z" fill="#009EE3"/>
</svg>
