<svg width="52" height="52" viewBox="0 0 52 52" fill="none" xmlns="http://www.w3.org/2000/svg">
<path d="M28.4032 20.2308L28.5168 20.5735H28.8779H30.9468L29.2816 21.7596L28.9809 21.9738L29.097 22.3242L29.7384 24.2594L28.0454 23.0534L27.7553 22.8468L27.4652 23.0534L25.7722 24.2594L26.4135 22.3242L26.5297 21.9738L26.229 21.7596L24.5638 20.5735H26.6327H26.9937L27.1073 20.2308L27.7553 18.2757L28.4032 20.2308Z" stroke="#009EE3"/>
<path d="M27.7839 11.6856C27.8803 11.52 28.1196 11.52 28.216 11.6856L29.386 13.6955C29.8346 14.4662 30.7909 14.7763 31.6064 14.4155L33.764 13.461C33.9405 13.3829 34.1351 13.5258 34.1136 13.7176L33.8613 15.9621L34.6066 16.0458L33.8613 15.9621C33.7601 16.8629 34.3635 17.6919 35.2518 17.8724L37.5183 18.3331C37.7095 18.372 37.7845 18.6051 37.6518 18.7481L36.1211 20.3981C35.4983 21.0694 35.4983 22.1072 36.1211 22.7785L37.6518 24.4285C37.7845 24.5715 37.7095 24.8047 37.5183 24.8435L35.2518 25.3042C34.3635 25.4848 33.7601 26.3138 33.8613 27.2146L34.1136 29.4591C34.1351 29.6509 33.9405 29.7937 33.764 29.7156L31.6064 28.7611C30.7909 28.4003 29.8346 28.7105 29.386 29.4811L28.216 31.491C28.1196 31.6567 27.8803 31.6567 27.7839 31.491L26.6139 29.4811C26.1653 28.7105 25.209 28.4003 24.3935 28.7611L22.2359 29.7156C22.0594 29.7937 21.8648 29.6509 21.8863 29.4591L22.1386 27.2146C22.2398 26.3138 21.6364 25.4848 20.7481 25.3042L18.4816 24.8435C18.2904 24.8047 18.2154 24.5715 18.3481 24.4285L19.8788 22.7785C20.5016 22.1072 20.5016 21.0694 19.8788 20.3981L18.3481 18.7481C18.2154 18.6051 18.2904 18.372 18.4816 18.3331L20.7481 17.8724C21.6364 17.6919 22.2398 16.8629 22.1386 15.9621L21.8863 13.7176C21.8648 13.5258 22.0594 13.3829 22.2359 13.461L24.3935 14.4155C25.209 14.7763 26.1653 14.4662 26.6139 13.6955L27.7839 11.6856Z" stroke="#009EE3" stroke-width="1.5"/>
<path d="M22.5 28.4513L19.6465 35.4571L22 35.3138L23.6193 36.9944L26.5564 29.699" stroke="#009EE3" stroke-width="1.5" stroke-linejoin="round"/>
<path d="M33.484 28.467L36.7082 35.3166L34.3503 35.2944L32.8231 37.0559L29.0999 29.4313" stroke="#009EE3" stroke-width="1.5" stroke-linejoin="round"/>
<path d="M9 8.84312H1V4.6768C1.00012 -0.225143 8.99994 -0.225261 9 4.6768V8.84312ZM9 8.84312V47.3136C9 52.2156 17 52.2156 17 47.3136V44.1373H48M48 44.1373H51V48.0589C51 49.5295 49.4 51.0001 47 51.0001H13M48 44.1373V3.94127C48 2.47065 46.5 1.00006 44 1.00006H5" stroke="#009EE3" stroke-width="2" stroke-linejoin="round"/>
</svg>
