<svg width="68" height="50" viewBox="0 0 68 50" fill="none" xmlns="http://www.w3.org/2000/svg">
<path fill-rule="evenodd" clip-rule="evenodd" d="M17.057 0.0598732C16.6486 0.226053 16.4197 0.573385 16.4197 1.02633C16.4197 1.37299 16.7485 1.76794 18.6333 3.68453C20.5104 5.59317 20.8471 5.99702 20.8471 6.33963C20.8471 6.6902 20.292 7.30582 16.6528 10.9917C14.3459 13.3282 12.4005 15.3875 12.3298 15.5681C12.086 16.1917 12.6519 16.9259 13.3766 16.9259C13.498 16.9259 15.2748 15.2263 17.3249 13.1491C19.375 11.0718 21.109 9.37228 21.1784 9.37228C21.2476 9.37228 21.6348 9.70194 22.0387 10.105C22.6704 10.7352 22.9774 10.9158 24.2342 11.3976C25.7755 11.9883 26.8614 12.5323 27.1123 12.8394C27.2324 12.9861 26.8172 13.4831 25.0745 15.2783C22.5026 17.9278 22.2418 18.3529 22.2418 19.8934C22.2418 21.5423 22.9829 22.7638 24.4703 23.5666C24.9247 23.8118 25.2454 23.8693 26.1601 23.8693C27.5689 23.8693 27.9119 23.6995 30.0071 21.9644L31.531 20.7027H33.0569H34.5828L36.3924 22.5237C38.0421 24.1837 38.2443 24.3446 38.6799 24.3446C39.0379 24.3446 39.2268 24.2555 39.4329 23.9892C39.9298 23.3477 39.8149 23.0903 38.3493 21.5605C37.1667 20.326 36.9957 20.0901 37.0318 19.7408C37.0546 19.5203 36.9327 18.6794 36.2701 18.6794H33.7209H30.7946L29.1379 20.062C28.2267 20.8224 27.2895 21.5507 27.0552 21.6806C25.8998 22.3208 24.494 21.5833 24.2202 20.1935C24.06 19.3804 24.3532 18.9523 26.6731 16.6112L28.9096 14.354L34.2093 14.3923L39.509 14.4305L41.5614 15.6108C44.4481 17.2708 44.1402 17.3257 46.7592 14.6848C47.9081 13.5264 48.9109 12.6006 48.9877 12.6278C49.1253 12.6762 58.1397 21.3757 59.1582 22.4429L59.6808 22.9904L58.793 23.9242C57.8146 24.9534 57.6637 25.4481 58.1709 25.9633C58.696 26.4965 59.1957 26.3319 60.2348 25.2837L61.176 24.3344L61.5662 24.541C62.1881 24.8703 62.9489 24.8046 63.6239 24.3631C63.9487 24.1507 65.0663 23.0952 66.1072 22.0175C67.6703 20.3994 68 19.9894 68 19.664C68 19.0973 67.565 18.6794 66.9751 18.6794C66.5298 18.6794 66.3325 18.8399 64.461 20.7263L62.4302 22.7732L61.2635 21.6368C60.6218 21.0117 57.6313 18.1102 54.6179 15.189C51.6043 12.2677 49.1388 9.84101 49.1388 9.79636C49.1388 9.75171 50.9619 7.86034 53.19 5.59331C56.7599 1.96096 57.2412 1.42168 57.2412 1.05291C57.2412 0.464801 56.8718 0.0517807 56.3317 0.0361339C55.9229 0.0243988 55.5702 0.346507 51.7083 4.25942C49.4089 6.58931 47.4417 8.65941 47.3369 8.85971C47.0925 9.32709 47.0927 10.2244 47.3372 10.7045L47.5281 11.0793L45.755 12.8762L43.9818 14.673L42.2327 13.6892C41.2708 13.1479 40.2644 12.6256 39.9964 12.5283C39.6288 12.3951 38.2901 12.3502 34.5476 12.3457L29.5862 12.3398L28.658 11.5265C27.5981 10.5979 27.0348 10.2852 25.1435 9.57623C24.0206 9.15538 23.6888 8.96128 23.1608 8.41702C22.574 7.81192 22.5385 7.73746 22.6832 7.41495C22.9282 6.86893 22.8762 5.65617 22.5831 5.08425C22.2782 4.48886 17.9753 0.122865 17.5929 0.0207561C17.4468 -0.018226 17.2056 -0.000690728 17.057 0.0598732ZM0.268935 14.7185C-0.288532 15.4381 -0.214283 15.5526 2.81612 18.6491C4.36858 20.2352 5.86047 21.6498 6.13143 21.7923C6.436 21.9526 6.89318 22.0516 7.32845 22.0516H8.03256L10.1894 24.245L12.3463 26.4383V27.9493C12.3463 29.7386 12.6012 30.6031 13.3975 31.5144L13.9066 32.0968L13.4603 32.65C11.7357 34.7873 12.772 37.9151 15.38 38.444L16.1316 38.5964L16.2174 39.2059C16.3244 39.9659 16.5975 40.511 17.1546 41.0767C17.6559 41.5858 18.7635 42.1464 19.2717 42.1483C19.5715 42.1495 19.6354 42.2227 19.7139 42.6554C20.0081 44.2788 21.146 45.4616 22.6598 45.7175C23.1848 45.8062 23.2145 45.837 23.294 46.3749C23.5619 48.19 25.3511 49.5819 27.1725 49.3925C28.1561 49.2901 28.7408 48.9254 30.0095 47.6221L31.136 46.4652L32.5996 47.9439C34.2663 49.628 34.9025 50 36.1156 50C37.9175 50 39.3393 48.7507 39.6387 46.9044C39.7251 46.371 39.7609 46.331 40.1516 46.3297C40.8039 46.3277 41.8638 45.7538 42.4083 45.1077C42.8597 44.5723 43.2945 43.5147 43.2945 42.9527C43.2945 42.786 43.4531 42.7037 43.8927 42.6426C45.3958 42.4334 46.6289 41.1819 46.8347 39.6565C46.9037 39.1453 46.9637 39.0472 47.2073 39.0472C48.7227 39.0472 50.4621 37.2851 50.4658 35.746C50.4671 35.227 50.5674 35.1079 53.6549 31.963C57.1157 28.4378 57.1894 28.3265 56.5166 27.6433C55.852 26.9682 55.7097 27.0614 52.5959 30.2115L49.73 33.111L46.0141 29.343C43.5165 26.8101 42.1748 25.5443 41.9215 25.4817C41.3618 25.3433 40.8495 25.7757 40.795 26.4321C40.7533 26.9355 40.7997 26.9894 44.6138 30.8775C48.2958 34.6308 48.4747 34.8366 48.4747 35.3183C48.4747 36.5655 47.3158 37.3969 46.3075 36.8733C46.148 36.7905 45.0273 35.7282 43.817 34.5128C41.4197 32.1053 41.2072 31.9824 40.5657 32.6341C39.924 33.2856 40.045 33.5014 42.4156 35.9358C43.6125 37.1649 44.6585 38.3031 44.7401 38.4651C45.2794 39.5359 44.3396 40.7894 43.122 40.6237C42.6505 40.5594 42.3503 40.3056 40.3125 38.2483C37.8596 35.7721 37.6953 35.6716 37.0033 36.2245C36.7589 36.4197 36.6533 36.6309 36.6533 36.9245C36.6533 37.2879 36.9587 37.6585 38.8998 39.6502C40.7713 41.5704 41.1619 42.0394 41.2395 42.4593C41.4276 43.478 40.7365 44.3078 39.6998 44.3078C39.1466 44.3078 39.0868 44.2596 36.8632 42.0254C35.428 40.5833 34.4534 39.7078 34.2162 39.6473C33.6607 39.5057 33.1458 39.9376 33.0915 40.5906C33.0508 41.0802 33.1176 41.1656 35.2973 43.4099C37.6624 45.8448 37.8459 46.1294 37.5793 46.9495C37.3598 47.6253 36.8775 47.9497 36.0928 47.9497C35.4356 47.9497 35.4349 47.9492 33.9632 46.4859L32.4911 45.0223L32.7126 44.4599C32.9734 43.7982 32.999 42.742 32.7733 41.9629C32.5562 41.213 31.3329 39.9707 30.5943 39.7501C30.2936 39.6603 29.8402 39.5868 29.5867 39.5868C29.1389 39.5868 29.1199 39.5649 28.9132 38.8112C28.6449 37.8325 27.9624 37.0067 27.0912 36.6069C26.4889 36.3304 26.4401 36.2741 26.5264 35.9559C26.5785 35.7644 26.6142 35.2893 26.6057 34.9003C26.5739 33.4229 25.4909 32.0241 24.0647 31.6182C23.5355 31.4676 22.488 31.5056 21.8396 31.6989C21.6229 31.7635 21.5381 31.6888 21.4059 31.3179C21.3156 31.0641 21.0226 30.6274 20.7548 30.3474C19.424 28.9559 17.2822 28.9166 15.7796 30.2566L15.308 30.677L15.0381 30.3772C14.4404 29.7131 14.3387 29.2962 14.3387 27.5123C14.3387 26.5355 14.276 25.6851 14.1917 25.516C14.1108 25.354 13.0811 24.2358 11.9035 23.031L9.76234 20.8407L10.4481 20.1309C11.3016 19.2477 11.4189 18.8541 10.9823 18.3387C10.7544 18.0696 10.5379 17.9601 10.2341 17.9601C9.87896 17.9601 9.63336 18.1349 8.78235 18.9941C7.97398 19.8102 7.67605 20.0283 7.36949 20.0283C7.04128 20.0283 6.54638 19.5887 4.18063 17.1957C1.72443 14.7111 1.32901 14.3631 0.962281 14.3631C0.668738 14.3631 0.462062 14.469 0.268935 14.7185ZM19.0844 31.5714C19.5449 31.8739 19.8221 32.5293 19.721 33.0765C19.6562 33.4273 19.3228 33.8744 18.415 34.8272C17.0712 36.2378 16.7107 36.4844 15.9924 36.4844C15.2662 36.4844 14.6043 35.7734 14.6043 34.9934C14.6043 34.4438 14.6666 34.3556 16.0847 32.896C16.8988 32.058 17.6908 31.3462 17.8446 31.3141C18.2274 31.2342 18.7296 31.3385 19.0844 31.5714ZM24.0799 33.9206C24.617 34.3993 24.7684 34.9823 24.5118 35.5823C24.4105 35.8187 23.4243 36.9228 22.3201 38.0356L20.3125 40.0589H19.6391C19.0464 40.0589 18.9193 40.0061 18.5782 39.6183C18.2675 39.2654 18.1906 39.0532 18.1906 38.5498C18.1906 37.9227 18.1939 37.9182 20.0834 35.9732C21.1245 34.9015 22.1554 33.9108 22.3746 33.7713C22.9677 33.3942 23.5464 33.4449 24.0799 33.9206ZM26.2295 38.4506C26.7998 38.7255 27.1467 39.4392 27.0264 40.0902C26.9593 40.4538 26.6218 40.8979 25.6086 41.9554C24.8773 42.7187 24.0688 43.4445 23.8119 43.5684C23.0043 43.9575 22.2552 43.6404 21.7813 42.7087C21.446 42.0493 21.7085 41.5297 23.1229 40.0534C24.8511 38.2495 25.3151 38.0101 26.2295 38.4506ZM30.4902 42.0687C30.8773 42.4617 30.9418 42.619 30.9418 43.169C30.9418 43.807 30.9328 43.8201 29.3811 45.4195C28.5227 46.3044 27.6468 47.1206 27.4346 47.2335C26.2867 47.844 24.8575 46.4919 25.3568 45.2678C25.443 45.0563 26.2471 44.1469 27.1437 43.2466C28.7685 41.6155 28.776 41.6101 29.4062 41.6101C29.9483 41.6101 30.1032 41.6756 30.4902 42.0687Z" fill="#009EE3"/>
</svg>
