<svg width="600" height="88" viewBox="0 0 600 88" fill="none" xmlns="http://www.w3.org/2000/svg">
<path fill-rule="evenodd" clip-rule="evenodd" d="M0 28.3857V56.7714L23.8685 56.6554L47.7369 56.5395L49.6277 55.5115C50.6673 54.9461 52.0994 53.6817 52.8102 52.7018L54.1018 50.9201L54.2381 41.8581C54.3335 35.5171 54.2228 32.4418 53.8697 31.6161C53.3291 30.3508 50.9546 28.6119 49.6464 28.5782C52.9994 27.0037 54.353 25.787 54.219 15.4199C54.112 7.17174 54.0238 6.22846 53.2154 4.72883C52.1682 2.78593 49.6108 0.917453 47.2812 0.394001C46.3651 0.187992 35.3521 0.0152901 22.8076 0.00994454L0 7.58588e-05V28.3857ZM83.91 0.576983C81.5058 1.42322 79.5369 3.06513 78.544 5.05326C77.6678 6.80783 77.6521 7.27413 77.6521 31.7921V56.7451H82.3197H86.9873V46.8764V37.0077H104.809H122.631V46.8764V56.7451H127.298H131.966V32.1346C131.966 14.6337 131.825 7.12075 131.477 6.12648C130.713 3.94385 129.534 2.56676 127.377 1.33811L125.389 0.205674L105.446 0.111099C89.4823 0.0354387 85.1843 0.128369 83.91 0.576983ZM147.963 0.51407C148.183 0.796973 153.267 7.53071 159.26 15.4783L170.156 29.9285V43.3368V56.7451H174.611H179.066V43.4215V30.098L190.311 15.2682C196.496 7.1117 201.556 0.339723 201.556 0.219243C201.556 0.0987628 199.026 0.000898244 195.934 0.00172064L190.311 0.00377661L182.743 10.0735C178.581 15.6119 175.02 20.2367 174.829 20.3506C174.639 20.4649 171.011 15.9327 166.769 10.2791L159.055 7.58588e-05H153.309C148.781 7.58588e-05 147.647 0.109043 147.963 0.51407ZM213.437 4.31763V8.63518H222.772H232.107V32.6901V56.7451H236.775H241.443V32.6901V8.63518H250.778H260.113V4.31763V7.58588e-05H236.775H213.437V4.31763ZM279.632 28.3726V56.7451H284.3H288.967V28.3726V7.58588e-05H284.3H279.632V28.3726ZM312.306 28.3726V56.7451H316.973H321.641V44.6148V32.4845L329.597 32.4907L337.553 32.4973L346.252 44.6074L354.951 56.7175L360.766 56.7315L366.581 56.7451L356.602 42.7175C350.729 34.462 346.719 28.4474 346.856 28.1012C346.984 27.778 351.31 21.571 356.469 14.3084C361.628 7.0455 365.947 0.855363 366.067 0.5519C366.244 0.106987 365.19 0.00336542 360.618 0.0169349L354.951 0.0333827L346.296 12.1472L337.643 24.2606H329.641H321.641V12.1303V7.58588e-05H316.973H312.306V28.3726ZM583.823 5.84029C581.401 9.05255 579.004 12.5293 578.719 12.9068L584.228 20.61L586.519 17.6038C590.364 12.5584 599.661 0.545657 600 0C600 0 598.373 7.58588e-05 593.925 7.58588e-05H588.225L583.823 5.84029ZM421.358 28.5782V56.7451H436.634H451.909V52.6331V48.5212H441.089H430.269V24.4662V0.411271H425.813H421.358V28.5782ZM471.853 25.3051C471.853 48.9657 471.893 50.2741 472.66 51.7244C473.6 53.5007 474.868 54.6981 476.945 55.7718C478.335 56.4905 479.727 56.5395 498.798 56.5395C518.838 56.5395 519.193 56.5251 520.863 55.6542C522.993 54.5431 524.246 53.2532 525.086 51.3041C525.654 49.9871 525.743 46.4467 525.743 25.0962V0.411271H521.287H516.832V23.9728C516.832 41.75 516.707 47.6556 516.323 48.0277C515.591 48.7366 482.005 48.7366 481.273 48.0277C480.889 47.6556 480.764 41.75 480.764 23.9728V0.411271H476.308H471.853V25.3051ZM546.181 0.741461C546.259 0.92321 550.905 7.1298 556.506 14.5338C562.107 21.9382 566.74 28.1316 566.8 28.2973C566.86 28.463 562.146 34.8851 556.323 42.5691L545.737 56.5395L550.886 56.6554C553.718 56.7196 556.25 56.692 556.512 56.5942C556.774 56.4967 560.413 51.8687 564.597 46.3093C568.783 40.75 572.397 36.2564 572.631 36.3239C572.864 36.3913 576.492 41.0094 580.693 46.5869L588.331 56.7274L593.95 56.7364L599.569 56.7451L592.659 47.596C588.858 42.5642 579.288 29.8891 571.392 19.4291L557.035 0.411271H551.537C548.513 0.411271 546.103 0.559713 546.181 0.741461ZM44.7666 8.62614V24.2697H9.33522V16.4479V8.62614H44.7666ZM122.532 18.6067L122.646 28.3726H104.817H86.9873V18.7781C86.9873 13.5009 87.1167 9.05789 87.275 8.90493C87.4328 8.75155 95.4051 8.67466 104.991 8.73346L122.419 8.84078L122.532 18.6067ZM44.7666 32.4845V48.0117H27.0509L9.33522 48.119V40.3018V32.4845H26.6809C40.9201 32.4845 44.7666 32.4845 44.7666 32.4845ZM505.375 71.2397L505.376 73.8097L501.326 73.6666C496.707 73.5033 495.511 73.7052 494.332 74.848C493.59 75.5667 493.494 76.2296 493.494 80.6129C493.494 85.3326 493.543 85.6139 494.542 86.5823C495.565 87.5736 495.74 87.5975 501.756 87.5605L507.921 87.5227V78.096V68.6697H506.648H505.375L505.375 71.2397ZM482.461 70.3145C482.461 71.4112 482.602 71.5481 483.734 71.5481C484.866 71.5481 485.007 71.4112 485.007 70.3145C485.007 69.2179 484.866 69.0809 483.734 69.0809C482.602 69.0809 482.461 69.2179 482.461 70.3145ZM421.358 80.624V87.5847H422.631H423.904C423.904 87.5847 423.916 90.0519 423.91 82.9588C423.904 75.8657 423.857 76.4825 427.136 76.4825H429.844V75.049V73.6152L425.601 73.6395L421.358 73.6633V80.624ZM437.612 74.5963C436.495 75.5268 436.412 75.8221 436.273 79.3464C436.09 83.9469 436.399 85.6957 437.582 86.764C438.406 87.5074 439.082 87.5847 444.776 87.5847H451.061V86.3627V85.1406L445.226 85.0263L439.392 84.912L439.262 83.6208L439.133 82.3293L444.076 82.1775C449.788 82.1775 449.24 81.828 449.788 81.2112C450.585 80.3132 450.297 74.6727 449.788 74.0153C449.151 73.1929 447.242 73.6395 443.692 73.6041C439.136 73.6041 438.721 73.6715 437.612 74.5963ZM460.589 74.6136C459.697 75.4775 459.547 76.0063 459.547 78.2909C459.547 81.9834 459.98 82.2392 466.219 82.2392H471.004V83.6784V85.1176H465.276H459.547V86.3512V87.5847H465.719C471.707 87.5847 471.923 87.5547 472.933 86.5753C473.803 85.7323 473.975 85.1673 473.975 83.1438C473.975 79.6281 473.612 79.4151 467.38 79.272L462.306 79.1552V77.9216V76.6881L468.14 76.5738L473.975 76.4594V75.0318V73.6041H467.803C461.815 73.6041 461.599 73.6341 460.589 74.6136ZM482.461 80.5944V87.5847H483.734H485.007V80.5944V73.6041H483.734H482.461V80.5944ZM518.259 74.0852C516.799 74.7702 516.407 76.2407 516.407 81.0439C516.407 85.2969 516.469 85.6262 517.449 86.5753C518.459 87.5547 518.675 87.5847 524.663 87.5847H530.835V86.3512V85.1176H525.106H519.378V83.7146V82.312L524.012 82.1726C528.23 82.0459 528.746 81.944 529.741 81.0369C530.653 80.2054 530.835 79.6729 530.835 77.8312C530.835 76.0347 530.64 75.4343 529.793 74.6136C528.806 73.6571 528.5 73.6057 523.958 73.6321C521.322 73.6473 518.758 73.8512 518.259 74.0852ZM539.321 80.6236V87.5847H540.806H542.291V82.0336V76.4825H546.747H551.202V82.0336V87.5847H552.694H554.186L554.049 81.5673C553.914 75.5762 553.908 75.5453 552.741 74.5725C551.62 73.6378 551.305 73.5971 545.445 73.6288L539.321 73.6621V80.6236ZM563.44 74.8406L562.164 76.0766L562.305 81.0455C562.496 87.7459 562.287 87.5847 570.768 87.5847H577.086V86.3627V85.1406L571.252 85.0263L565.417 84.912L565.296 80.6972L565.175 76.4825H571.131H577.086V75.0433V73.6041H570.901H564.715L563.44 74.8406ZM586.353 74.8406L585.078 76.0766L585.219 81.0455C585.41 87.7459 585.201 87.5847 593.682 87.5847H600V86.3627V85.1406L594.165 85.0263L588.331 84.912L588.198 83.5756L588.065 82.2392H592.137C596.992 82.2392 598.769 81.6586 599.557 79.8156C600.324 78.0207 599.856 75.6666 598.506 74.5293C597.503 73.6851 596.979 73.6041 592.518 73.6041C587.649 73.6041 587.624 73.609 586.353 74.8406ZM448.091 77.9216V79.3608H443.635H439.18V77.9216V76.4825H443.635H448.091V77.9216ZM505.163 80.8V84.912L500.813 85.0292L496.464 85.1464V80.8V76.4537L500.813 76.5709L505.163 76.6881V80.8ZM528.209 77.8188L528.076 79.1552L523.727 79.2724L519.378 79.3896V77.936V76.4825H523.86H528.342L528.209 77.8188ZM596.95 77.8188L596.818 79.1552L592.468 79.2724L588.119 79.3896V77.936V76.4825H592.601H597.084L596.95 77.8188Z" fill="white"/>
<path fill-rule="evenodd" clip-rule="evenodd" d="M421.358 28.5781V56.745H436.634H451.91V52.6331V48.5211H441.089H430.269V24.4662V0.411247H425.813H421.358V28.5781ZM471.853 25.305C471.853 48.9656 471.893 50.2741 472.66 51.7243C473.6 53.5007 474.868 54.6981 476.945 55.7717C478.335 56.4905 479.727 56.5395 498.798 56.5395C518.838 56.5395 519.193 56.5251 520.863 55.6541C522.993 54.5431 524.246 53.2532 525.086 51.3041C525.654 49.987 525.743 46.4467 525.743 25.0961V0.411247H521.287H516.832V23.9728C516.832 41.75 516.707 47.6556 516.323 48.0277C515.591 48.7366 482.005 48.7366 481.273 48.0277C480.889 47.6556 480.764 41.75 480.764 23.9728V0.411247H476.308H471.853V25.305ZM545.32 0C545.32 0 550.905 7.12977 556.506 14.5338C562.108 21.9382 566.74 28.1316 566.8 28.2973C566.86 28.463 562.146 34.8851 556.323 42.5691L545.737 56.5395L550.886 56.6554C553.718 56.7196 556.25 56.692 556.512 56.5941C556.774 56.4967 560.413 51.8687 564.597 46.3093C568.783 40.75 572.397 36.2564 572.631 36.3238C572.864 36.3913 576.492 41.0094 580.693 46.5869L588.331 56.7274L593.95 56.7364L599.569 56.745L592.659 47.5959C588.858 42.5641 579.288 29.889 571.392 19.429L556.847 0H545.32ZM505.375 71.2397L505.376 73.8097L501.326 73.6666C496.707 73.5033 495.511 73.7052 494.332 74.8479C493.59 75.5667 493.494 76.2296 493.494 80.6129C493.494 85.3326 493.543 85.6139 494.542 86.5822C495.565 87.5736 495.74 87.5975 501.756 87.5605L507.921 87.5226V78.096V68.6697H506.648H505.375L505.375 71.2397ZM482.461 70.3145C482.461 71.4112 482.602 71.5481 483.734 71.5481C484.866 71.5481 485.007 71.4112 485.007 70.3145C485.007 69.2178 484.866 69.0809 483.734 69.0809C482.602 69.0809 482.461 69.2178 482.461 70.3145ZM421.358 80.624V87.5847H422.631H423.904C423.904 87.5847 423.916 90.0519 423.91 82.9588C423.904 75.8656 423.857 76.4824 427.136 76.4824H429.844V75.049V73.6152L425.601 73.6394L421.358 73.6633V80.624ZM437.612 74.5963C436.495 75.5268 436.412 75.8221 436.273 79.3464C436.09 83.9469 436.399 85.6957 437.582 86.764C438.406 87.5074 439.082 87.5847 444.776 87.5847H451.061V86.3626V85.1406L445.226 85.0263L439.392 84.9119L439.262 83.6208L439.133 82.3292L444.076 82.1775C449.788 82.1775 449.24 81.828 449.788 81.2112C450.585 80.3131 450.297 74.6727 449.788 74.0153C449.151 73.1929 447.242 73.6394 443.692 73.6041C439.136 73.6041 438.721 73.6715 437.612 74.5963ZM460.589 74.6136C459.697 75.4775 459.547 76.0063 459.547 78.2909C459.547 81.9834 459.98 82.2392 466.219 82.2392H471.004V83.6784V85.1175H465.276H459.547V86.3511V87.5847H465.719C471.707 87.5847 471.923 87.5547 472.933 86.5752C473.803 85.7323 473.975 85.1673 473.975 83.1438C473.975 79.6281 473.612 79.4151 467.38 79.272L462.306 79.1552V77.9216V76.688L468.14 76.5737L473.975 76.4594V75.0317V73.6041H467.803C461.815 73.6041 461.599 73.6341 460.589 74.6136ZM482.461 80.5944V87.5847H483.734H485.007V80.5944V73.6041H483.734H482.461V80.5944ZM518.259 74.0852C516.799 74.7702 516.407 76.2407 516.407 81.0438C516.407 85.2968 516.469 85.6262 517.449 86.5752C518.459 87.5547 518.675 87.5847 524.663 87.5847H530.835V86.3511V85.1175H525.106H519.378V83.7145V82.312L524.012 82.1726C528.23 82.0459 528.746 81.9439 529.741 81.0368C530.653 80.2054 530.835 79.6729 530.835 77.8312C530.835 76.0346 530.64 75.4343 529.793 74.6136C528.806 73.6571 528.5 73.6057 523.958 73.632C521.322 73.6472 518.758 73.8512 518.259 74.0852ZM539.321 80.6236V87.5847H540.806H542.291V82.0336V76.4824H546.747H551.202V82.0336V87.5847H552.694H554.186L554.05 81.5673C553.914 75.5762 553.908 75.5453 552.741 74.5724C551.62 73.6378 551.305 73.5971 545.445 73.6287L539.321 73.662V80.6236ZM563.439 74.8405L562.164 76.0766L562.305 81.0455C562.496 87.7459 562.287 87.5847 570.768 87.5847H577.086V86.3626V85.1406L571.252 85.0263L565.417 84.9119L565.296 80.6972L565.175 76.4824H571.131H577.086V75.0433V73.6041H570.901H564.715L563.439 74.8405ZM586.353 74.8405L585.078 76.0766L585.219 81.0455C585.41 87.7459 585.201 87.5847 593.682 87.5847H600V86.3626V85.1406L594.166 85.0263L588.331 84.9119L588.198 83.5756L588.065 82.2392H592.137C596.992 82.2392 598.77 81.6586 599.557 79.8156C600.324 78.0207 599.856 75.6666 598.506 74.5293C597.503 73.6851 596.979 73.6041 592.518 73.6041C587.65 73.6041 587.624 73.609 586.353 74.8405ZM448.091 77.9216V79.3608H443.635H439.18V77.9216V76.4824H443.635H448.091V77.9216ZM505.163 80.8V84.9119L500.813 85.0291L496.464 85.1463V80.8V76.4537L500.813 76.5708L505.163 76.688V80.8ZM528.209 77.8188L528.076 79.1552L523.727 79.2724L519.378 79.3896V77.936V76.4824H523.86H528.342L528.209 77.8188ZM596.95 77.8188L596.818 79.1552L592.468 79.2724L588.119 79.3896V77.936V76.4824H592.601H597.084L596.95 77.8188Z" fill="#009EE3"/>
</svg>
