<svg width="20" height="18" viewBox="0 0 20 18" fill="none" xmlns="http://www.w3.org/2000/svg">
<path d="M19.9284 13.3717C19.8054 13.1727 19.4774 13.0534 18.9853 12.8145C18.4932 12.5757 16.074 11.4218 15.6228 11.2625C15.1719 11.1033 14.8437 11.0238 14.5157 11.5012C14.1877 11.9787 13.2447 13.0534 12.9576 13.3717C12.6706 13.69 12.3835 13.73 11.8916 13.4911C11.3995 13.2524 9.81397 12.7487 7.9344 11.1234C6.47154 9.85841 5.48398 8.29632 5.19694 7.81872C4.90989 7.34113 5.16633 7.08305 5.41268 6.84517C5.63406 6.63136 5.90479 6.28786 6.15081 6.00939C6.39683 5.73092 6.47884 5.5318 6.64287 5.21365C6.80688 4.89513 6.7249 4.61666 6.60185 4.37786C6.47884 4.13907 5.49474 1.79097 5.08469 0.835785C4.68523 -0.0944163 4.27957 0.0315945 3.97754 0.0168993C3.69084 0.00293897 3.36244 0 3.03443 0C2.7064 0 2.17327 0.119398 1.72223 0.596989C1.2712 1.07458 0 2.2287 0 4.57661C0 6.92471 1.76322 9.19309 2.00927 9.51142C2.25529 9.82994 5.47909 14.6482 10.4154 16.7145C11.5894 17.2061 12.5059 17.4996 13.2206 17.7194C14.3994 18.0826 15.4722 18.0313 16.3199 17.9085C17.2654 17.7715 19.2313 16.7545 19.6415 15.6403C20.0513 14.5258 20.0513 13.5706 19.9284 13.3717Z" fill="#009EE3"/>
</svg>
