<svg width="46" height="52" viewBox="0 0 46 52" fill="none" xmlns="http://www.w3.org/2000/svg">
<path d="M21.1667 27.8519V13.963M21.1667 13.963V1L45 10.2593V51H40.875M21.1667 13.963L1 23.2222V44.5185M40.875 51V43.5926M40.875 51H36.2917M36.2917 51V39.8889H29.4167V51M36.2917 51H29.4167M29.4167 51H25.2917M25.2917 51V43.5926M25.2917 51H21.1667M21.1667 51H1V44.5185M21.1667 51V44.5185M21.1667 34.3333V44.5185M21.1667 44.5185H15.6667M1 44.5185H6.5M15.6667 44.5185V37.1111H6.5V44.5185M15.6667 44.5185H6.5M31.7083 12.5741L25.75 10.2593V21.3704H31.7083V12.5741ZM34.9167 13.963V21.3704H41.3333V16.7407L34.9167 13.963ZM34.9167 26V34.3333H41.3333V26H34.9167ZM25.2917 26V34.3333H31.7083V26H25.2917ZM15.6667 24.1481H12L6.5 26.9259V31.5556H15.6667V24.1481Z" stroke="#009EE3" stroke-width="1.5" stroke-linecap="round" stroke-linejoin="round"/>
</svg>
