<svg width="62" height="52" viewBox="0 0 62 52" fill="none" xmlns="http://www.w3.org/2000/svg">
<path d="M1 44.5484C1 47.7742 3.14286 51 6.35714 51H60C60.5523 51 61 50.5523 61 50V8.98925C61 8.43696 60.5523 7.98925 60 7.98925H13.8571M1 44.5484C1 41.3226 3.67857 38.6344 7.42857 38.6344C10.6429 38.6344 13.8571 41.3226 13.8571 44.5484M1 44.5484V7.45161C1 7.45161 1 7.45161 1 7.45161C1 7.45161 1 1 7.42857 1C13.8571 1 13.8571 7.45161 13.8571 7.45161C13.8571 7.45161 13.8571 7.45161 13.8571 7.45161V7.98925M13.8571 44.5484V45.6237M13.8571 44.5484V7.98925M51.3571 25.1935V38.0968M51.3571 20.8925V16.5914M44.9286 44.5484H40.6429M36.3571 44.5484H23.5M31 37.0215H24.5C23.9477 37.0215 23.5 36.5738 23.5 36.0215V25.6378C23.5 25.355 23.6198 25.0853 23.8297 24.8957L33.544 16.1215C33.9247 15.7777 34.5039 15.7777 34.8846 16.1215L40.7619 21.4301M31 37.0215H43.9286C44.4809 37.0215 44.9286 36.5738 44.9286 36.0215V25.6378C44.9286 25.355 44.8088 25.0853 44.5989 24.8957L40.7619 21.4301M31 37.0215V28.4194M37.4286 27.3441V32.7204M40.7619 21.4301L40.6429 13.3656" stroke="#009EE3" stroke-width="2" stroke-linecap="round" stroke-linejoin="round"/>
</svg>
