<svg width="135" height="29" viewBox="0 0 135 29" fill="none" xmlns="http://www.w3.org/2000/svg">
<path d="M0.9375 18.8615H3.06152C3.98275 18.8615 4.67773 18.9949 5.14648 19.2618C5.61523 19.5288 5.84961 19.9894 5.84961 20.6437C5.84961 20.9171 5.80078 21.1645 5.70312 21.3859C5.60872 21.604 5.47038 21.7846 5.28809 21.9279C5.10579 22.0678 4.88118 22.1622 4.61426 22.2111V22.2599C4.89095 22.3087 5.13672 22.395 5.35156 22.5187C5.56966 22.6424 5.74056 22.8198 5.86426 23.0509C5.99121 23.282 6.05469 23.5815 6.05469 23.9493C6.05469 24.3855 5.95052 24.7566 5.74219 25.0626C5.53711 25.3686 5.24251 25.6014 4.8584 25.7609C4.47754 25.9204 4.02507 26.0001 3.50098 26.0001H0.9375V18.8615ZM2.10938 21.8058H3.23242C3.76302 21.8058 4.13086 21.7195 4.33594 21.547C4.54102 21.3745 4.64355 21.1222 4.64355 20.7902C4.64355 20.4516 4.52148 20.2075 4.27734 20.0577C4.03646 19.908 3.65234 19.8331 3.125 19.8331H2.10938V21.8058ZM2.10938 22.7531V25.0187H3.34473C3.8916 25.0187 4.27572 24.9129 4.49707 24.7013C4.71842 24.4897 4.8291 24.2032 4.8291 23.8419C4.8291 23.6206 4.77865 23.4285 4.67773 23.2657C4.58008 23.103 4.41895 22.9777 4.19434 22.8898C3.96973 22.7986 3.66699 22.7531 3.28613 22.7531H2.10938ZM9.58984 26.0978C9.07878 26.0978 8.63607 25.9985 8.26172 25.7999C7.88737 25.6014 7.59928 25.297 7.39746 24.8868C7.19564 24.4767 7.09473 23.9559 7.09473 23.3243C7.09473 22.6668 7.2054 22.1297 7.42676 21.713C7.64811 21.2963 7.9541 20.9887 8.34473 20.7902C8.73861 20.5916 9.18945 20.4923 9.69727 20.4923C10.0195 20.4923 10.3109 20.5249 10.5713 20.59C10.835 20.6518 11.0579 20.7283 11.2402 20.8195L10.8984 21.7374C10.6999 21.656 10.4964 21.5877 10.2881 21.5323C10.0798 21.477 9.87956 21.4493 9.6875 21.4493C9.37174 21.4493 9.10807 21.5193 8.89648 21.6593C8.68815 21.7993 8.5319 22.0076 8.42773 22.2843C8.32682 22.561 8.27637 22.9044 8.27637 23.3146C8.27637 23.7117 8.32845 24.047 8.43262 24.3204C8.53678 24.5906 8.69141 24.7957 8.89648 24.9357C9.10156 25.0724 9.35384 25.1407 9.65332 25.1407C9.94954 25.1407 10.2148 25.1049 10.4492 25.0333C10.6836 24.9617 10.9049 24.8689 11.1133 24.755V25.7511C10.9082 25.8683 10.6885 25.9545 10.4541 26.0099C10.2197 26.0685 9.93164 26.0978 9.58984 26.0978ZM14.5361 20.4923C15.0179 20.4923 15.4313 20.5916 15.7764 20.7902C16.1214 20.9887 16.3867 21.2703 16.5723 21.6349C16.7578 21.9995 16.8506 22.4357 16.8506 22.9435V23.5587H13.2422C13.2552 24.0828 13.3952 24.4865 13.6621 24.7697C13.9323 25.0529 14.3099 25.1945 14.7949 25.1945C15.14 25.1945 15.4492 25.1619 15.7227 25.0968C15.9993 25.0284 16.2842 24.9292 16.5771 24.799V25.7316C16.307 25.8585 16.0319 25.9513 15.752 26.0099C15.472 26.0685 15.1367 26.0978 14.7461 26.0978C14.2155 26.0978 13.7484 25.9952 13.3447 25.7902C12.9443 25.5818 12.6302 25.2726 12.4023 24.8624C12.1777 24.4523 12.0654 23.9428 12.0654 23.3341C12.0654 22.7286 12.168 22.2143 12.373 21.7911C12.5781 21.368 12.8662 21.0457 13.2373 20.8243C13.6084 20.603 14.0413 20.4923 14.5361 20.4923ZM14.5361 21.3566C14.1748 21.3566 13.8818 21.4738 13.6572 21.7081C13.4359 21.9425 13.3057 22.2859 13.2666 22.7384H15.7275C15.7243 22.4682 15.6787 22.229 15.5908 22.0206C15.5062 21.8123 15.376 21.6495 15.2002 21.5323C15.0277 21.4152 14.8063 21.3566 14.5361 21.3566ZM25.4639 20.5948V26.0001H24.3066V21.5031H21.8945V26.0001H20.7422V20.5948H25.4639ZM29.8828 20.4923C30.5241 20.4923 31.0384 20.7267 31.4258 21.1954C31.8164 21.6642 32.0117 22.3608 32.0117 23.2853C32.0117 23.8973 31.9206 24.4132 31.7383 24.8331C31.5592 25.2498 31.307 25.5656 30.9814 25.7804C30.6592 25.992 30.2832 26.0978 29.8535 26.0978C29.5801 26.0978 29.3424 26.062 29.1406 25.9904C28.9388 25.9187 28.7663 25.826 28.623 25.712C28.4798 25.5948 28.3594 25.4679 28.2617 25.3312H28.1934C28.2096 25.4614 28.2243 25.6062 28.2373 25.7657C28.2536 25.922 28.2617 26.0652 28.2617 26.1954V28.3976H27.1094V20.5948H28.0469L28.208 21.3419H28.2617C28.3626 21.1889 28.4847 21.0473 28.6279 20.9171C28.7744 20.7869 28.9502 20.6844 29.1553 20.6095C29.3636 20.5314 29.6061 20.4923 29.8828 20.4923ZM29.5752 21.4298C29.2594 21.4298 29.0055 21.4933 28.8135 21.6202C28.6247 21.7439 28.4863 21.9311 28.3984 22.1818C28.3138 22.4324 28.2682 22.7465 28.2617 23.1241V23.2853C28.2617 23.6857 28.3024 24.0258 28.3838 24.3058C28.4684 24.5825 28.6068 24.7941 28.7988 24.9406C28.9941 25.0838 29.2578 25.1554 29.5898 25.1554C29.8698 25.1554 30.1009 25.0789 30.2832 24.9259C30.4688 24.7729 30.6071 24.5548 30.6982 24.2716C30.7894 23.9884 30.835 23.6547 30.835 23.2706C30.835 22.6879 30.7308 22.2355 30.5225 21.9132C30.3174 21.5909 30.0016 21.4298 29.5752 21.4298ZM35.459 20.4923C36.1426 20.4923 36.6585 20.6437 37.0068 20.9464C37.3584 21.2491 37.5342 21.7212 37.5342 22.3624V26.0001H36.7188L36.499 25.2335H36.46C36.307 25.4288 36.1491 25.59 35.9863 25.7169C35.8236 25.8439 35.6348 25.9383 35.4199 26.0001C35.2083 26.0652 34.9495 26.0978 34.6436 26.0978C34.3213 26.0978 34.0332 26.0392 33.7793 25.922C33.5254 25.8016 33.3252 25.6193 33.1787 25.3751C33.0322 25.131 32.959 24.8217 32.959 24.4474C32.959 23.8907 33.1657 23.4725 33.5791 23.1925C33.9958 22.9126 34.624 22.7579 35.4639 22.7286L36.4014 22.6945V22.4113C36.4014 22.0369 36.3135 21.77 36.1377 21.6105C35.9652 21.451 35.721 21.3712 35.4053 21.3712C35.1351 21.3712 34.873 21.4103 34.6191 21.4884C34.3652 21.5665 34.1178 21.6626 33.877 21.7765L33.5059 20.9659C33.7695 20.826 34.069 20.712 34.4043 20.6241C34.7428 20.5363 35.0944 20.4923 35.459 20.4923ZM36.3965 23.4171L35.6982 23.4415C35.1253 23.4611 34.7233 23.5587 34.4922 23.7345C34.2611 23.9103 34.1455 24.1512 34.1455 24.4572C34.1455 24.7241 34.2253 24.9194 34.3848 25.0431C34.5443 25.1635 34.7542 25.2238 35.0146 25.2238C35.4118 25.2238 35.7406 25.1115 36.001 24.8868C36.2646 24.659 36.3965 24.3253 36.3965 23.8859V23.4171ZM43.6865 21.9816C43.6865 22.2941 43.5905 22.5496 43.3984 22.7482C43.2096 22.9435 42.9492 23.0721 42.6172 23.1339V23.173C42.972 23.2185 43.2682 23.3439 43.5059 23.549C43.7435 23.754 43.8623 24.0389 43.8623 24.4034C43.8623 24.7127 43.7842 24.9878 43.6279 25.2286C43.4749 25.4663 43.2308 25.6551 42.8955 25.795C42.5635 25.9318 42.1289 26.0001 41.5918 26.0001H39.1406V20.5948H41.582C41.9857 20.5948 42.3454 20.6388 42.6611 20.7267C42.9801 20.8146 43.2308 20.9594 43.4131 21.1613C43.5954 21.3631 43.6865 21.6365 43.6865 21.9816ZM42.666 24.3644C42.666 24.0975 42.5635 23.9054 42.3584 23.7882C42.1566 23.671 41.8604 23.6124 41.4697 23.6124H40.293V25.1554H41.4941C41.8587 25.1554 42.1452 25.0952 42.3535 24.9747C42.5618 24.851 42.666 24.6476 42.666 24.3644ZM42.5195 22.0841C42.5195 21.8725 42.4398 21.7163 42.2803 21.6154C42.1208 21.5112 41.8701 21.4591 41.5283 21.4591H40.293V22.7677H41.3721C41.7497 22.7677 42.0345 22.714 42.2266 22.6066C42.4219 22.4959 42.5195 22.3217 42.5195 22.0841ZM47.2754 20.4923C47.959 20.4923 48.4749 20.6437 48.8232 20.9464C49.1748 21.2491 49.3506 21.7212 49.3506 22.3624V26.0001H48.5352L48.3154 25.2335H48.2764C48.1234 25.4288 47.9655 25.59 47.8027 25.7169C47.64 25.8439 47.4512 25.9383 47.2363 26.0001C47.0247 26.0652 46.766 26.0978 46.46 26.0978C46.1377 26.0978 45.8496 26.0392 45.5957 25.922C45.3418 25.8016 45.1416 25.6193 44.9951 25.3751C44.8486 25.131 44.7754 24.8217 44.7754 24.4474C44.7754 23.8907 44.9821 23.4725 45.3955 23.1925C45.8122 22.9126 46.4404 22.7579 47.2803 22.7286L48.2178 22.6945V22.4113C48.2178 22.0369 48.1299 21.77 47.9541 21.6105C47.7816 21.451 47.5374 21.3712 47.2217 21.3712C46.9515 21.3712 46.6895 21.4103 46.4355 21.4884C46.1816 21.5665 45.9342 21.6626 45.6934 21.7765L45.3223 20.9659C45.5859 20.826 45.8854 20.712 46.2207 20.6241C46.5592 20.5363 46.9108 20.4923 47.2754 20.4923ZM48.2129 23.4171L47.5146 23.4415C46.9417 23.4611 46.5397 23.5587 46.3086 23.7345C46.0775 23.9103 45.9619 24.1512 45.9619 24.4572C45.9619 24.7241 46.0417 24.9194 46.2012 25.0431C46.3607 25.1635 46.5706 25.2238 46.8311 25.2238C47.2282 25.2238 47.557 25.1115 47.8174 24.8868C48.0811 24.659 48.2129 24.3253 48.2129 23.8859V23.4171ZM55.2344 20.4923C55.6315 20.4923 55.988 20.546 56.3037 20.6534C56.6227 20.7576 56.875 20.9155 57.0605 21.1271C57.2461 21.3387 57.3389 21.6023 57.3389 21.9181C57.3389 22.2436 57.2445 22.504 57.0557 22.6993C56.8701 22.8914 56.6178 23.0297 56.2988 23.1144V23.1583C56.5234 23.2137 56.7269 23.2934 56.9092 23.3976C57.0915 23.4985 57.2363 23.6352 57.3438 23.8077C57.4544 23.977 57.5098 24.1951 57.5098 24.462C57.5098 24.7648 57.4202 25.0398 57.2412 25.2872C57.0654 25.5346 56.7952 25.7316 56.4307 25.8781C56.0661 26.0245 55.6022 26.0978 55.0391 26.0978C54.7689 26.0978 54.5117 26.0831 54.2676 26.0538C54.0267 26.0278 53.807 25.9904 53.6084 25.9415C53.4098 25.8894 53.2373 25.8276 53.0908 25.756V24.7697C53.3154 24.8771 53.5872 24.9747 53.9062 25.0626C54.2253 25.1473 54.5671 25.1896 54.9316 25.1896C55.2018 25.1896 55.446 25.1652 55.6641 25.1163C55.8854 25.0642 56.0596 24.9796 56.1865 24.8624C56.3167 24.7452 56.3818 24.589 56.3818 24.3937C56.3818 24.2146 56.3249 24.0665 56.2109 23.9493C56.097 23.8322 55.9261 23.7459 55.6982 23.6906C55.4704 23.632 55.1823 23.6027 54.834 23.6027H54.1895V22.7579H54.7559C55.2344 22.7579 55.6087 22.7059 55.8789 22.6017C56.1523 22.4943 56.2891 22.3087 56.2891 22.045C56.2891 21.8237 56.193 21.6577 56.001 21.547C55.8089 21.4363 55.5143 21.381 55.1172 21.381C54.8438 21.381 54.5736 21.4119 54.3066 21.4738C54.0397 21.5323 53.7728 21.617 53.5059 21.7277L53.1445 20.8829C53.4408 20.7625 53.7581 20.6681 54.0967 20.5997C54.4352 20.5281 54.8145 20.4923 55.2344 20.4923ZM60.8691 20.4923C61.5527 20.4923 62.0687 20.6437 62.417 20.9464C62.7686 21.2491 62.9443 21.7212 62.9443 22.3624V26.0001H62.1289L61.9092 25.2335H61.8701C61.7171 25.4288 61.5592 25.59 61.3965 25.7169C61.2337 25.8439 61.0449 25.9383 60.8301 26.0001C60.6185 26.0652 60.3597 26.0978 60.0537 26.0978C59.7314 26.0978 59.4434 26.0392 59.1895 25.922C58.9355 25.8016 58.7354 25.6193 58.5889 25.3751C58.4424 25.131 58.3691 24.8217 58.3691 24.4474C58.3691 23.8907 58.5758 23.4725 58.9893 23.1925C59.4059 22.9126 60.0342 22.7579 60.874 22.7286L61.8115 22.6945V22.4113C61.8115 22.0369 61.7236 21.77 61.5479 21.6105C61.3753 21.451 61.1312 21.3712 60.8154 21.3712C60.5452 21.3712 60.2832 21.4103 60.0293 21.4884C59.7754 21.5665 59.528 21.6626 59.2871 21.7765L58.916 20.9659C59.1797 20.826 59.4792 20.712 59.8145 20.6241C60.153 20.5363 60.5046 20.4923 60.8691 20.4923ZM61.8066 23.4171L61.1084 23.4415C60.5355 23.4611 60.1335 23.5587 59.9023 23.7345C59.6712 23.9103 59.5557 24.1512 59.5557 24.4572C59.5557 24.7241 59.6354 24.9194 59.7949 25.0431C59.9544 25.1635 60.1644 25.2238 60.4248 25.2238C60.8219 25.2238 61.1507 25.1115 61.4111 24.8868C61.6748 24.659 61.8066 24.3253 61.8066 23.8859V23.4171ZM72.2021 20.5948V25.1163H72.9834V27.8995H71.9043V26.0001H64.5508V20.5948H65.6982V25.0968H67.7979V20.5948H68.9502V25.0968H71.0547V20.5948H72.2021ZM75.0684 20.5948V23.3536C75.0684 23.4415 75.0651 23.5538 75.0586 23.6906C75.0553 23.824 75.0488 23.964 75.0391 24.1105C75.0293 24.2537 75.0195 24.3855 75.0098 24.506C75 24.6264 74.9919 24.7159 74.9854 24.7745L77.7051 20.5948H79.1016V26.0001H78.0029V23.2706C78.0029 23.1274 78.0062 22.9614 78.0127 22.7726C78.0225 22.5838 78.0322 22.4015 78.042 22.2257C78.055 22.0499 78.0632 21.9165 78.0664 21.8253L75.3564 26.0001H73.9648V20.5948H75.0684ZM88.4033 20.5948V25.1163H89.1846V27.8995H88.1055V26.0001H80.752V20.5948H81.8994V25.0968H83.999V20.5948H85.1514V25.0968H87.2559V20.5948H88.4033ZM92.3193 20.4923C92.8011 20.4923 93.2145 20.5916 93.5596 20.7902C93.9046 20.9887 94.1699 21.2703 94.3555 21.6349C94.541 21.9995 94.6338 22.4357 94.6338 22.9435V23.5587H91.0254C91.0384 24.0828 91.1784 24.4865 91.4453 24.7697C91.7155 25.0529 92.0931 25.1945 92.5781 25.1945C92.9232 25.1945 93.2324 25.1619 93.5059 25.0968C93.7826 25.0284 94.0674 24.9292 94.3604 24.799V25.7316C94.0902 25.8585 93.8151 25.9513 93.5352 26.0099C93.2552 26.0685 92.9199 26.0978 92.5293 26.0978C91.9987 26.0978 91.5316 25.9952 91.1279 25.7902C90.7275 25.5818 90.4134 25.2726 90.1855 24.8624C89.9609 24.4523 89.8486 23.9428 89.8486 23.3341C89.8486 22.7286 89.9512 22.2143 90.1562 21.7911C90.3613 21.368 90.6494 21.0457 91.0205 20.8243C91.3916 20.603 91.8245 20.4923 92.3193 20.4923ZM92.3193 21.3566C91.958 21.3566 91.665 21.4738 91.4404 21.7081C91.2191 21.9425 91.0889 22.2859 91.0498 22.7384H93.5107C93.5075 22.4682 93.4619 22.229 93.374 22.0206C93.2894 21.8123 93.1592 21.6495 92.9834 21.5323C92.8109 21.4152 92.5895 21.3566 92.3193 21.3566ZM97.0801 20.5948V22.7677H99.6094V20.5948H100.762V26.0001H99.6094V23.6661H97.0801V26.0001H95.9277V20.5948H97.0801ZM102.402 26.0001V20.5948H103.555V22.7531H104.644C105.151 22.7531 105.57 22.8116 105.898 22.9288C106.227 23.0428 106.471 23.2153 106.631 23.4464C106.79 23.6775 106.87 23.9672 106.87 24.3156C106.87 24.6573 106.794 24.9552 106.641 25.2091C106.488 25.4598 106.248 25.6551 105.923 25.795C105.597 25.9318 105.171 26.0001 104.644 26.0001H102.402ZM103.555 25.1554H104.565C104.91 25.1554 105.189 25.0935 105.4 24.9698C105.615 24.8429 105.723 24.6346 105.723 24.3448C105.723 24.0747 105.623 23.8842 105.425 23.7736C105.229 23.6596 104.943 23.6027 104.565 23.6027H103.555V25.1554ZM107.705 26.0001V20.5948H108.857V26.0001H107.705Z" fill="white"/>
<path d="M74.8477 4.86145C74.7826 5.11861 74.7174 5.39205 74.6523 5.68176C74.5872 5.97148 74.527 6.25793 74.4717 6.54114C74.4196 6.82109 74.3773 7.07662 74.3447 7.30774H73.2266L73.1582 7.20032C73.2168 6.96269 73.2917 6.70878 73.3828 6.4386C73.4772 6.16842 73.5781 5.89823 73.6855 5.62805C73.7962 5.35461 73.9069 5.09908 74.0176 4.86145H74.8477ZM72.8115 4.86145C72.7464 5.11861 72.6813 5.39205 72.6162 5.68176C72.5511 5.97148 72.4909 6.25793 72.4355 6.54114C72.3835 6.82109 72.3395 7.07662 72.3037 7.30774H71.1904L71.127 7.20032C71.1855 6.96269 71.2604 6.70878 71.3516 6.4386C71.4427 6.16842 71.542 5.89823 71.6494 5.62805C71.7601 5.35461 71.8708 5.09908 71.9814 4.86145H72.8115ZM75.9121 4.86145H78.0361C78.9574 4.86145 79.6523 4.99491 80.1211 5.26184C80.5898 5.52877 80.8242 5.98938 80.8242 6.64368C80.8242 6.91711 80.7754 7.16451 80.6777 7.38586C80.5833 7.60396 80.445 7.78463 80.2627 7.92786C80.0804 8.06783 79.8558 8.16223 79.5889 8.21106V8.25989C79.8656 8.30872 80.1113 8.39498 80.3262 8.51868C80.5443 8.64237 80.7152 8.81978 80.8389 9.0509C80.9658 9.28202 81.0293 9.5815 81.0293 9.94934C81.0293 10.3855 80.9251 10.7566 80.7168 11.0626C80.5117 11.3686 80.2171 11.6014 79.833 11.7609C79.4521 11.9204 78.9997 12.0001 78.4756 12.0001H75.9121V4.86145ZM77.084 7.80579H78.207C78.7376 7.80579 79.1055 7.71952 79.3105 7.547C79.5156 7.37447 79.6182 7.12219 79.6182 6.79016C79.6182 6.45162 79.4961 6.20748 79.252 6.05774C79.0111 5.908 78.627 5.83313 78.0996 5.83313H77.084V7.80579ZM77.084 8.75305V11.0187H78.3193C78.8662 11.0187 79.2503 10.9129 79.4717 10.7013C79.693 10.4897 79.8037 10.2032 79.8037 9.84192C79.8037 9.62056 79.7533 9.42851 79.6523 9.26575C79.5547 9.10299 79.3936 8.97766 79.1689 8.88977C78.9443 8.79862 78.6416 8.75305 78.2607 8.75305H77.084ZM86.9277 12.0001L86.2295 10.0177H83.5L82.8018 12.0001H81.5664L84.2227 4.83215H85.5215L88.1729 12.0001H86.9277ZM85.9268 9.01184L85.248 7.05872C85.222 6.97408 85.1846 6.85527 85.1357 6.70227C85.0869 6.54602 85.0381 6.38814 84.9893 6.22864C84.9404 6.06588 84.8997 5.92916 84.8672 5.81848C84.8346 5.95194 84.7939 6.10168 84.7451 6.2677C84.6995 6.43046 84.654 6.58346 84.6084 6.72668C84.5661 6.86991 84.5335 6.98059 84.5107 7.05872L83.8271 9.01184H85.9268ZM91.1367 8.11829L92.8311 4.86145H94.0957L91.7227 9.22668V12.0001H90.5557V9.27063L88.1777 4.86145H89.4521L91.1367 8.11829ZM97.5088 12.0001H96.332V5.85754H94.2422V4.86145H99.5938V5.85754H97.5088V12.0001ZM100.688 12.0001V4.86145H101.859V12.0001H100.688ZM109.188 12.0001H107.841L105.619 8.75793L104.916 9.32922V12.0001H103.744V4.86145H104.916V8.27454C105.059 8.09875 105.204 7.92297 105.351 7.74719C105.497 7.57141 105.644 7.39563 105.79 7.21985L107.802 4.86145H109.125L106.459 7.98645L109.188 12.0001ZM112.729 12.0001V4.86145H113.9V11.004H116.933V12.0001H112.729ZM123.773 4.86145V9.48059C123.773 9.97864 123.668 10.4246 123.456 10.8185C123.248 11.2124 122.932 11.5249 122.509 11.756C122.086 11.9838 121.553 12.0978 120.912 12.0978C119.997 12.0978 119.301 11.8585 118.822 11.38C118.347 10.8982 118.109 10.2586 118.109 9.46106V4.86145H119.281V9.35852C119.281 9.95422 119.421 10.3937 119.701 10.6769C119.981 10.9601 120.399 11.1017 120.956 11.1017C121.34 11.1017 121.653 11.035 121.894 10.9015C122.138 10.7648 122.317 10.5662 122.431 10.3058C122.548 10.0421 122.606 9.72473 122.606 9.35364V4.86145H123.773ZM130.868 12.0001H129.535L127.738 9.07532L125.932 12.0001H124.677L127.05 8.29895L124.838 4.86145H126.132L127.792 7.56653L129.442 4.86145H130.697L128.476 8.33313L130.868 12.0001ZM134.667 4.86145L134.74 4.96887C134.682 5.2065 134.605 5.46041 134.511 5.73059C134.42 6.00077 134.32 6.27096 134.213 6.54114C134.105 6.81132 133.996 7.06685 133.886 7.30774H133.046C133.111 7.05058 133.176 6.77714 133.241 6.48743C133.306 6.19771 133.367 5.91125 133.422 5.62805C133.477 5.34485 133.521 5.08931 133.554 4.86145H134.667ZM132.631 4.86145L132.699 4.96887C132.641 5.2065 132.564 5.46041 132.47 5.73059C132.379 6.00077 132.279 6.27096 132.172 6.54114C132.064 6.81132 131.955 7.06685 131.845 7.30774H131.02C131.065 7.11568 131.112 6.91386 131.161 6.70227C131.21 6.48743 131.256 6.27258 131.298 6.05774C131.343 5.83964 131.384 5.62968 131.42 5.42786C131.459 5.22278 131.49 5.03398 131.513 4.86145H132.631Z" fill="white"/>
<path d="M17.2783 12.0001H12.4395V11.131L14.2803 9.2804C14.8239 8.72375 15.1836 8.32987 15.3594 8.09875C15.5384 7.86438 15.6686 7.64465 15.75 7.43958C15.8314 7.2345 15.8721 7.01477 15.8721 6.7804C15.8721 6.45813 15.7744 6.20422 15.5791 6.01868C15.387 5.83313 15.1201 5.74036 14.7783 5.74036C14.5049 5.74036 14.2396 5.79081 13.9824 5.89172C13.7285 5.99264 13.4339 6.17493 13.0986 6.4386L12.4785 5.68176C12.8757 5.34648 13.2614 5.10885 13.6357 4.96887C14.0101 4.8289 14.4089 4.75891 14.832 4.75891C15.4961 4.75891 16.0283 4.93306 16.4287 5.28137C16.8291 5.62642 17.0293 6.09192 17.0293 6.67786C17.0293 7.00012 16.9707 7.30611 16.8535 7.59583C16.7396 7.88554 16.5622 8.18502 16.3213 8.49426C16.0837 8.80025 15.6865 9.21529 15.1299 9.73938L13.8896 10.9406V10.9894H17.2783V12.0001ZM22.9912 8.43079C22.9912 9.67102 22.791 10.5922 22.3906 11.1945C21.9935 11.7967 21.3848 12.0978 20.5645 12.0978C19.7702 12.0978 19.168 11.7869 18.7578 11.1652C18.3477 10.5434 18.1426 9.63196 18.1426 8.43079C18.1426 7.17102 18.3411 6.24329 18.7383 5.64758C19.1387 5.04862 19.7474 4.74915 20.5645 4.74915C21.362 4.74915 21.9658 5.06165 22.376 5.68665C22.7861 6.31165 22.9912 7.22636 22.9912 8.43079ZM19.3047 8.43079C19.3047 9.40409 19.404 10.0991 19.6025 10.5157C19.8044 10.9324 20.125 11.1407 20.5645 11.1407C21.0039 11.1407 21.3245 10.9292 21.5264 10.506C21.7314 10.0828 21.834 9.39107 21.834 8.43079C21.834 7.47375 21.7314 6.78202 21.5264 6.35559C21.3245 5.9259 21.0039 5.71106 20.5645 5.71106C20.125 5.71106 19.8044 5.92102 19.6025 6.34094C19.404 6.76086 19.3047 7.45748 19.3047 8.43079ZM27.2344 12.0001H26.0869V7.39075C26.0869 6.84062 26.0999 6.40442 26.126 6.08215C26.0511 6.16028 25.9583 6.24654 25.8477 6.34094C25.7402 6.43534 25.3757 6.73482 24.7539 7.23938L24.1777 6.51184L26.2773 4.86145H27.2344V12.0001ZM31.9902 4.76868C32.6673 4.76868 33.2028 4.92493 33.5967 5.23743C33.9906 5.54667 34.1875 5.96171 34.1875 6.48254C34.1875 7.21497 33.748 7.79765 32.8691 8.23059C33.429 8.51054 33.8262 8.80514 34.0605 9.11438C34.2982 9.42362 34.417 9.76868 34.417 10.1495C34.417 10.7387 34.2005 11.2107 33.7676 11.5656C33.3346 11.9204 32.7487 12.0978 32.0098 12.0978C31.235 12.0978 30.6344 11.9318 30.208 11.5997C29.7816 11.2677 29.5684 10.7973 29.5684 10.1886C29.5684 9.79146 29.679 9.43502 29.9004 9.11926C30.125 8.80025 30.4912 8.51705 30.999 8.26965C30.5628 8.00924 30.252 7.73417 30.0664 7.44446C29.8809 7.15474 29.7881 6.82922 29.7881 6.4679C29.7881 5.95032 29.9915 5.53853 30.3984 5.23254C30.8053 4.9233 31.3359 4.76868 31.9902 4.76868ZM30.667 10.1495C30.667 10.4881 30.7858 10.7517 31.0234 10.9406C31.2611 11.1261 31.5833 11.2189 31.9902 11.2189C32.4102 11.2189 32.7357 11.1228 32.9668 10.9308C33.2012 10.7355 33.3184 10.4718 33.3184 10.1398C33.3184 9.8761 33.2109 9.63521 32.9961 9.41711C32.7812 9.19902 32.4557 8.99719 32.0195 8.81165L31.8779 8.74817C31.4482 8.93697 31.139 9.1453 30.9502 9.37317C30.7614 9.59778 30.667 9.85657 30.667 10.1495ZM31.9805 5.65247C31.6549 5.65247 31.3929 5.73385 31.1943 5.89661C30.9958 6.05611 30.8965 6.27421 30.8965 6.5509C30.8965 6.72017 30.9323 6.87154 31.0039 7.005C31.0755 7.13847 31.1797 7.26054 31.3164 7.37122C31.4531 7.47864 31.6842 7.60885 32.0098 7.76184C32.4004 7.58931 32.6755 7.40865 32.835 7.21985C32.9977 7.02779 33.0791 6.80481 33.0791 6.5509C33.0791 6.27421 32.9782 6.05611 32.7764 5.89661C32.5778 5.73385 32.3125 5.65247 31.9805 5.65247ZM35.2031 9.80774V8.83118H37.7129V9.80774H35.2031ZM43.3525 12.0001H38.5137V11.131L40.3545 9.2804C40.8981 8.72375 41.2578 8.32987 41.4336 8.09875C41.6126 7.86438 41.7428 7.64465 41.8242 7.43958C41.9056 7.2345 41.9463 7.01477 41.9463 6.7804C41.9463 6.45813 41.8486 6.20422 41.6533 6.01868C41.4613 5.83313 41.1943 5.74036 40.8525 5.74036C40.5791 5.74036 40.3138 5.79081 40.0566 5.89172C39.8027 5.99264 39.5081 6.17493 39.1729 6.4386L38.5527 5.68176C38.9499 5.34648 39.3356 5.10885 39.71 4.96887C40.0843 4.8289 40.4831 4.75891 40.9062 4.75891C41.5703 4.75891 42.1025 4.93306 42.5029 5.28137C42.9033 5.62642 43.1035 6.09192 43.1035 6.67786C43.1035 7.00012 43.0449 7.30611 42.9277 7.59583C42.8138 7.88554 42.6364 8.18502 42.3955 8.49426C42.1579 8.80025 41.7607 9.21529 41.2041 9.73938L39.9639 10.9406V10.9894H43.3525V12.0001ZM49.0654 8.43079C49.0654 9.67102 48.8652 10.5922 48.4648 11.1945C48.0677 11.7967 47.459 12.0978 46.6387 12.0978C45.8444 12.0978 45.2422 11.7869 44.832 11.1652C44.4219 10.5434 44.2168 9.63196 44.2168 8.43079C44.2168 7.17102 44.4154 6.24329 44.8125 5.64758C45.2129 5.04862 45.8216 4.74915 46.6387 4.74915C47.4362 4.74915 48.04 5.06165 48.4502 5.68665C48.8604 6.31165 49.0654 7.22636 49.0654 8.43079ZM45.3789 8.43079C45.3789 9.40409 45.4782 10.0991 45.6768 10.5157C45.8786 10.9324 46.1992 11.1407 46.6387 11.1407C47.0781 11.1407 47.3988 10.9292 47.6006 10.506C47.8057 10.0828 47.9082 9.39107 47.9082 8.43079C47.9082 7.47375 47.8057 6.78202 47.6006 6.35559C47.3988 5.9259 47.0781 5.71106 46.6387 5.71106C46.1992 5.71106 45.8786 5.92102 45.6768 6.34094C45.4782 6.76086 45.3789 7.45748 45.3789 8.43079ZM54.7783 12.0001H49.9395V11.131L51.7803 9.2804C52.3239 8.72375 52.6836 8.32987 52.8594 8.09875C53.0384 7.86438 53.1686 7.64465 53.25 7.43958C53.3314 7.2345 53.3721 7.01477 53.3721 6.7804C53.3721 6.45813 53.2744 6.20422 53.0791 6.01868C52.887 5.83313 52.6201 5.74036 52.2783 5.74036C52.0049 5.74036 51.7396 5.79081 51.4824 5.89172C51.2285 5.99264 50.9339 6.17493 50.5986 6.4386L49.9785 5.68176C50.3757 5.34648 50.7614 5.10885 51.1357 4.96887C51.5101 4.8289 51.9089 4.75891 52.332 4.75891C52.9961 4.75891 53.5283 4.93306 53.9287 5.28137C54.3291 5.62642 54.5293 6.09192 54.5293 6.67786C54.5293 7.00012 54.4707 7.30611 54.3535 7.59583C54.2396 7.88554 54.0622 8.18502 53.8213 8.49426C53.5837 8.80025 53.1865 9.21529 52.6299 9.73938L51.3896 10.9406V10.9894H54.7783V12.0001ZM59.0215 12.0001H57.874V7.39075C57.874 6.84062 57.887 6.40442 57.9131 6.08215C57.8382 6.16028 57.7454 6.24654 57.6348 6.34094C57.5273 6.43534 57.1628 6.73482 56.541 7.23938L55.9648 6.51184L58.0645 4.86145H59.0215V12.0001Z" fill="white"/>
<circle cx="5" cy="8.00012" r="4.5" stroke="white"/>
<path d="M4.99805 11.0978C4.18099 11.0978 3.55924 10.8601 3.13281 10.3849C2.70964 9.90637 2.49805 9.22115 2.49805 8.32922C2.49805 7.42102 2.7194 6.72278 3.16211 6.2345C3.60807 5.74622 4.25098 5.50208 5.09082 5.50208C5.66048 5.50208 6.17318 5.60787 6.62891 5.81946L6.28223 6.74231C5.7972 6.55351 5.39681 6.45911 5.08105 6.45911C4.14681 6.45911 3.67969 7.07922 3.67969 8.31946C3.67969 8.92493 3.79525 9.38066 4.02637 9.68665C4.26074 9.98938 4.60254 10.1407 5.05176 10.1407C5.56283 10.1407 6.04622 10.0138 6.50195 9.75989V10.7609C6.29688 10.8813 6.07715 10.9676 5.84277 11.0197C5.61165 11.0717 5.33008 11.0978 4.99805 11.0978Z" fill="white"/>
</svg>
